<svg width="26" height="26" viewBox="0 0 26 26" fill="none" xmlns="http://www.w3.org/2000/svg">
<path d="M13.0003 23.8332C18.9834 23.8332 23.8337 18.9829 23.8337 12.9998C23.8337 7.01675 18.9834 2.1665 13.0003 2.1665C7.01724 2.1665 2.16699 7.01675 2.16699 12.9998C2.16699 18.9829 7.01724 23.8332 13.0003 23.8332Z" stroke="#221B38" stroke-width="1.7" stroke-miterlimit="10" stroke-linecap="round" stroke-linejoin="round"/>
<path d="M9.74967 18.4165H8.39551" stroke="#221B38" stroke-width="1.7" stroke-miterlimit="10" stroke-linecap="round" stroke-linejoin="round"/>
<path d="M9.74967 7.5835H8.39551" stroke="#221B38" stroke-width="1.7" stroke-miterlimit="10" stroke-linecap="round" stroke-linejoin="round"/>
<path d="M11.6455 7.58317V5.4165" stroke="#221B38" stroke-width="1.7" stroke-miterlimit="10" stroke-linecap="round" stroke-linejoin="round"/>
<path d="M14.3545 7.594V5.4165" stroke="#221B38" stroke-width="1.7" stroke-miterlimit="10" stroke-linecap="round" stroke-linejoin="round"/>
<path d="M11.6455 20.5832V18.4165" stroke="#221B38" stroke-width="1.7" stroke-miterlimit="10" stroke-linecap="round" stroke-linejoin="round"/>
<path d="M14.3545 20.594V18.4165" stroke="#221B38" stroke-width="1.7" stroke-miterlimit="10" stroke-linecap="round" stroke-linejoin="round"/>
<path d="M15.1342 13H9.75V18.4167H15.1342C16.9542 18.4167 18.4167 17.2358 18.4167 15.7733V15.6325C18.4167 14.1808 16.9542 13 15.1342 13Z" stroke="#221B38" stroke-width="1.7" stroke-miterlimit="10" stroke-linecap="round" stroke-linejoin="round"/>
<path d="M14.0508 7.5835H9.75V13.0002H14.0508C15.8708 13.0002 17.3333 11.8193 17.3333 10.3568V10.216C17.3333 8.76433 15.8708 7.5835 14.0508 7.5835Z" stroke="#221B38" stroke-width="1.7" stroke-miterlimit="10" stroke-linecap="round" stroke-linejoin="round"/>
</svg>
