<svg width="86" height="86" viewBox="0 0 86 86" fill="none" xmlns="http://www.w3.org/2000/svg">
<path d="M7.1665 75.25C8.95817 68.4417 14.2257 69.8392 16.0173 63.0308C17.809 56.2225 12.5415 54.825 14.3332 48.0525C16.1248 41.2442 21.3923 42.6058 23.184 35.8333C24.9757 28.9892 19.7082 27.6275 21.4998 20.7833C23.0765 14.835 27.3048 15.1575 29.5265 10.75" stroke="#221B38" stroke-width="3.58333" stroke-miterlimit="10" stroke-linecap="round" stroke-linejoin="round"/>
<path d="M77.7943 26.3377L73.996 22.5393C72.5985 21.1418 70.341 21.1418 68.9435 22.5393L29.5268 61.956L25.0835 75.2502L38.3777 70.8068L77.7943 31.3902C79.1918 29.9927 79.1918 27.7352 77.7943 26.3377Z" stroke="#221B38" stroke-width="3.58333" stroke-miterlimit="10" stroke-linecap="round" stroke-linejoin="round"/>
<path d="M71.4524 37.732L62.6016 28.8812L68.9082 22.5745C70.3057 21.177 72.5632 21.177 73.9607 22.5745L77.7591 26.3728C79.1566 27.7703 79.1566 30.0278 77.7591 31.4253L71.4524 37.732Z" stroke="#221B38" stroke-width="3.58333" stroke-miterlimit="10" stroke-linecap="round" stroke-linejoin="round"/>
</svg>
