<svg width="55" height="71" viewBox="0 0 55 71" fill="none" xmlns="http://www.w3.org/2000/svg">
<path d="M3.26953 62.4219H50.9185V70.3461H3.26953V62.4219Z" fill="black"/>
<path d="M51.4411 70.8679H2.74414V61.8994H51.4411V70.8679ZM3.79043 69.8229H50.3965V62.9437H3.79043V69.8229Z" fill="black"/>
<path d="M29.2393 25.9414H25.2617V23.8513H27.1491V15.7329H29.2391L29.2393 25.9414Z" fill="black"/>
<path d="M18.3525 15.917H20.4426V19.5815H18.3525V15.917Z" fill="black"/>
<path d="M33.748 15.917H35.8381V19.5815H33.748V15.917Z" fill="black"/>
<path d="M49.6136 0.521586H5.31177C4.04235 0.525522 2.82536 1.03198 1.92737 1.92942C1.02991 2.82753 0.523461 4.0445 0.519531 5.31382V60.265H54.3992L54.3999 5.31382C54.3959 4.04506 53.8901 2.82943 52.994 1.93194C52.0972 1.03383 50.8823 0.527379 49.6134 0.521484L49.6136 0.521586ZM10.2342 53.2475H6.56832V51.1574H10.2342V53.2475ZM46.337 50.6818H33.3248V48.5918L46.3365 48.5924L46.337 50.6818ZM48.0952 34.4929C48.0926 35.5438 47.6734 36.5509 46.9308 37.2942C46.1875 38.0368 45.1805 38.456 44.1295 38.4586H10.7944C9.74274 38.4567 8.73503 38.0388 7.99121 37.2955C7.24727 36.5522 6.82741 35.5445 6.82479 34.4929V11.4779C6.82741 10.4269 7.24661 9.41988 7.98924 8.67723C8.73253 7.93394 9.73955 7.5154 10.7905 7.51212H44.1257C45.1766 7.5154 46.1836 7.93394 46.9263 8.67723C47.6696 9.41986 48.0881 10.4269 48.0914 11.4779L48.0952 34.4929Z" fill="black"/>
<path d="M54.9243 60.7879H0V5.31444C0.00196796 3.90595 0.562225 2.55513 1.55806 1.55872C2.55457 0.562207 3.90541 0.00196494 5.31379 0H49.6156C51.0248 0.00196813 52.3749 0.562224 53.3713 1.55872C54.3672 2.55523 54.9274 3.90607 54.9294 5.31444L54.9243 60.7879ZM1.04461 59.7428H53.878V5.31399C53.8767 4.18299 53.4273 3.09864 52.6276 2.29822C51.8285 1.49787 50.7441 1.04652 49.6132 1.04456H5.31133C4.17968 1.04587 3.09465 1.49591 2.29423 2.29626C1.49388 3.09727 1.04384 4.18227 1.04253 5.31404L1.04461 59.7428ZM10.7578 53.7697H6.04614V50.6346H10.7571L10.7578 53.7697ZM7.09192 52.7247H9.71268V51.6796L7.09125 51.6803L7.09192 52.7247ZM46.861 51.204L32.8029 51.2047V48.0695H46.8603L46.861 51.204ZM33.8487 50.1589L45.8153 50.1596V49.1145H33.848L33.8487 50.1589ZM44.1314 38.9776H10.7963L10.7956 38.9782C9.60557 38.9782 8.46404 38.5059 7.6218 37.6649C6.77946 36.8238 6.30581 35.683 6.30317 34.4929V11.4779C6.30514 10.2879 6.77813 9.14772 7.61982 8.30666C8.46085 7.46563 9.60172 6.99198 10.7918 6.99067H44.1269C45.3163 6.99198 46.4571 7.46563 47.2988 8.30666C48.1399 9.14769 48.6135 10.2879 48.6148 11.4779V34.4929C48.6135 35.6823 48.1405 36.8218 47.3002 37.6629C46.4598 38.5039 45.3203 38.9775 44.1309 38.9802L44.1314 38.9776ZM10.7963 8.03231L10.7956 8.03296C9.88306 8.03427 9.00784 8.39706 8.3631 9.04259C7.71756 9.68746 7.35413 10.5626 7.35217 11.4751V34.4917C7.35413 35.4043 7.71758 36.2795 8.3631 36.9242C9.00797 37.5698 9.88313 37.9326 10.7956 37.9339H44.1307C45.0433 37.9326 45.9185 37.5698 46.5639 36.9242C47.2088 36.2794 47.5722 35.4042 47.5742 34.4917V11.4768C47.5722 10.5642 47.2088 9.68967 46.5639 9.04427C45.9183 8.3994 45.0432 8.03595 44.1307 8.03464L10.7963 8.03231Z" fill="black"/>
<path d="M27.0943 32.9041C21.8106 32.9041 19.6982 29.6207 19.6104 29.4816L21.3776 28.3657C21.4426 28.47 23.019 30.814 27.0936 30.814C31.2319 30.814 32.7899 28.3978 32.8043 28.3743L34.5808 29.4817C34.491 29.6208 32.3779 32.9042 27.0943 32.9042V32.9041Z" fill="black"/>
</svg>
