<svg width="24" height="24" viewBox="0 0 24 24" fill="none" xmlns="http://www.w3.org/2000/svg">
<rect width="1" height="1" transform="matrix(-1 0 0 1 8 22)" fill="#0B0217"/>
<rect width="1" height="1" transform="matrix(-1 0 0 1 7 21)" fill="#42799B"/>
<rect width="1" height="1" transform="matrix(-1 0 0 1 7 23)" fill="#0B0217"/>
<rect width="1" height="1" transform="matrix(-1 0 0 1 8 23)" fill="#0B0217"/>
<rect width="1" height="1" transform="matrix(-1 0 0 1 9 23)" fill="#0B0217"/>
<rect width="1" height="1" transform="matrix(-1 0 0 1 10 23)" fill="#0B0217"/>
<rect width="1" height="1" transform="matrix(-1 0 0 1 11 23)" fill="#0B0217"/>
<rect width="1" height="1" transform="matrix(-1 0 0 1 12 23)" fill="#0B0217"/>
<rect width="1" height="1" transform="matrix(-1 0 0 1 13 23)" fill="#0B0217"/>
<rect width="1" height="1" transform="matrix(-1 0 0 1 14 23)" fill="#0B0217"/>
<rect width="1" height="1" transform="matrix(-1 0 0 1 15 23)" fill="#0B0217"/>
<rect width="1" height="1" transform="matrix(-1 0 0 1 16 23)" fill="#0B0217"/>
<rect width="1" height="1" transform="matrix(-1 0 0 1 17 23)" fill="#0B0217"/>
<rect width="1" height="1" transform="matrix(-1 0 0 1 18 23)" fill="#0B0217"/>
<rect width="1" height="1" transform="matrix(-1 0 0 1 19 23)" fill="#0B0217"/>
<rect width="1" height="1" transform="matrix(-1 0 0 1 20 23)" fill="#0B0217"/>
<rect width="1" height="1" transform="matrix(-1 0 0 1 22 23)" fill="#0B0217"/>
<rect width="1" height="1" transform="matrix(-1 0 0 1 23 23)" fill="#0B0217"/>
<rect width="1" height="1" transform="matrix(-1 0 0 1 24 23)" fill="#0B0217"/>
<rect width="1" height="1" transform="matrix(-1 0 0 1 2 16)" fill="#0B0217"/>
<rect width="1" height="1" transform="matrix(-1 0 0 1 1 17)" fill="#0B0217"/>
<rect width="1" height="1" transform="matrix(-1 0 0 1 12 18)" fill="#0B0217"/>
<rect width="1" height="1" transform="matrix(-1 0 0 1 11 17)" fill="#0B0217"/>
<rect width="1" height="1" transform="matrix(-1 0 0 1 10 17)" fill="#43799B"/>
<rect width="1" height="1" transform="matrix(-1 0 0 1 8 19)" fill="#43799B"/>
<rect width="1" height="1" transform="matrix(-1 0 0 1 4 16)" fill="#65A4CC"/>
<rect width="1" height="1" transform="matrix(-1 0 0 1 4 15)" fill="#65A4CC"/>
<rect width="1" height="1" transform="matrix(-1 0 0 1 6 15)" fill="#65A4CC"/>
<rect width="1" height="1" transform="matrix(-1 0 0 1 6 14)" fill="#65A4CC"/>
<rect width="1" height="1" transform="matrix(-1 0 0 1 6 13)" fill="#65A4CC"/>
<rect width="1" height="1" transform="matrix(-1 0 0 1 3 18)" fill="#65A4CC"/>
<rect width="1" height="1" transform="matrix(-1 0 0 1 5 18)" fill="#65A4CC"/>
<rect width="1" height="1" transform="matrix(-1 0 0 1 5 17)" fill="#65A4CC"/>
<rect width="1" height="1" transform="matrix(-1 0 0 1 7 17)" fill="#65A4CC"/>
<rect width="1" height="1" transform="matrix(-1 0 0 1 8 17)" fill="#65A4CC"/>
<rect width="1" height="1" transform="matrix(-1 0 0 1 8 15)" fill="#65A4CC"/>
<rect width="1" height="1" transform="matrix(-1 0 0 1 6 21)" fill="#43799B"/>
<rect width="1" height="1" transform="matrix(-1 0 0 1 10 18)" fill="#43799B"/>
<rect width="1" height="1" transform="matrix(-1 0 0 1 11 18)" fill="#43799B"/>
<rect width="1" height="1" transform="matrix(-1 0 0 1 10 19)" fill="#43799B"/>
<rect width="1" height="1" transform="matrix(-1 0 0 1 8 20)" fill="#43799B"/>
<rect width="1" height="1" transform="matrix(-1 0 0 1 4 17)" fill="#65A4CC"/>
<rect width="1" height="1" transform="matrix(-1 0 0 1 6 16)" fill="#65A4CC"/>
<rect width="1" height="1" transform="matrix(-1 0 0 1 3 19)" fill="#65A4CC"/>
<rect width="1" height="1" transform="matrix(-1 0 0 1 3 20)" fill="#65A4CC"/>
<rect width="1" height="1" transform="matrix(-1 0 0 1 3 21)" fill="#65A4CC"/>
<rect width="1" height="1" transform="matrix(-1 0 0 1 5 19)" fill="#65A4CC"/>
<rect width="1" height="1" transform="matrix(-1 0 0 1 6 19)" fill="#65A4CC"/>
<rect width="1" height="1" transform="matrix(-1 0 0 1 5 20)" fill="#65A4CC"/>
<rect width="1" height="1" transform="matrix(-1 0 0 1 7 18)" fill="#65A4CC"/>
<rect width="1" height="1" transform="matrix(-1 0 0 1 8 16)" fill="#65A4CC"/>
<rect width="1" height="1" transform="matrix(-1 0 0 1 9 16)" fill="#65A4CC"/>
<rect width="1" height="1" transform="matrix(-1 0 0 1 8 21)" fill="#43799B"/>
<rect width="1" height="1" transform="matrix(-1 0 0 1 9 20)" fill="#43799B"/>
<rect width="1" height="1" transform="matrix(-1 0 0 1 6 22)" fill="#43799B"/>
<rect width="1" height="1" transform="matrix(-1 0 0 1 7 22)" fill="#43799B"/>
<rect width="1" height="1" transform="matrix(-1 0 0 1 9 17)" fill="#43799B"/>
<rect width="1" height="1" transform="matrix(-1 0 0 1 7 19)" fill="#43799B"/>
<rect width="1" height="1" transform="matrix(-1 0 0 1 3 16)" fill="#65A4CC"/>
<rect width="1" height="1" transform="matrix(-1 0 0 1 5 15)" fill="#65A4CC"/>
<rect width="1" height="1" transform="matrix(-1 0 0 1 5 14)" fill="#65A4CC"/>
<rect width="1" height="1" transform="matrix(-1 0 0 1 2 18)" fill="#65A4CC"/>
<rect width="1" height="1" transform="matrix(-1 0 0 1 2 17)" fill="#65A4CC"/>
<rect width="1" height="1" transform="matrix(-1 0 0 1 4 18)" fill="#65A4CC"/>
<rect width="1" height="1" transform="matrix(-1 0 0 1 6 17)" fill="#65A4CC"/>
<rect width="1" height="1" transform="matrix(-1 0 0 1 7 15)" fill="#65A4CC"/>
<rect width="1" height="1" transform="matrix(-1 0 0 1 7 14)" fill="#65A4CC"/>
<rect width="1" height="1" transform="matrix(-1 0 0 1 6 20)" fill="#43799B"/>
<rect width="1" height="1" transform="matrix(-1 0 0 1 5 21)" fill="#43799B"/>
<rect width="1" height="1" transform="matrix(-1 0 0 1 9 18)" fill="#43799B"/>
<rect width="1" height="1" transform="matrix(-1 0 0 1 7 20)" fill="#43799B"/>
<rect width="1" height="1" transform="matrix(-1 0 0 1 3 17)" fill="#65A4CC"/>
<rect width="1" height="1" transform="matrix(-1 0 0 1 5 16)" fill="#65A4CC"/>
<rect width="1" height="1" transform="matrix(-1 0 0 1 2 19)" fill="#65A4CC"/>
<rect width="1" height="1" transform="matrix(-1 0 0 1 2 20)" fill="#65A4CC"/>
<rect width="1" height="1" transform="matrix(-1 0 0 1 4 19)" fill="#65A4CC"/>
<rect width="1" height="1" transform="matrix(-1 0 0 1 4 20)" fill="#65A4CC"/>
<rect width="1" height="1" transform="matrix(-1 0 0 1 4 21)" fill="#65A4CC"/>
<rect width="1" height="1" transform="matrix(-1 0 0 1 6 18)" fill="#65A4CC"/>
<rect width="1" height="1" transform="matrix(-1 0 0 1 7 16)" fill="#65A4CC"/>
<rect width="1" height="1" transform="matrix(-1 0 0 1 5 22)" fill="#43799B"/>
<rect width="1" height="1" transform="matrix(-1 0 0 1 4 22)" fill="#43799B"/>
<rect width="1" height="1" transform="matrix(-1 0 0 1 6 12)" fill="#0B0217"/>
<rect width="1" height="1" transform="matrix(-1 0 0 1 1 18)" fill="#0B0217"/>
<rect width="1" height="1" transform="matrix(-1 0 0 1 1 19)" fill="#0B0217"/>
<rect width="1" height="1" transform="matrix(-1 0 0 1 6 23)" fill="#0B0217"/>
<rect width="1" height="1" transform="matrix(-1 0 0 1 14 16)" fill="#0B0217"/>
<rect width="1" height="1" transform="matrix(-1 0 0 1 14 15)" fill="#A63D27"/>
<rect width="1" height="1" transform="matrix(-1 0 0 1 13 15)" fill="#A63D27"/>
<rect width="1" height="1" transform="matrix(-1 0 0 1 12 15)" fill="#A63D27"/>
<rect width="1" height="1" transform="matrix(-1 0 0 1 8 10)" fill="#0B0217"/>
<rect width="1" height="1" transform="matrix(-1 0 0 1 9 13)" fill="#0B0217"/>
<rect width="1" height="1" transform="matrix(-1 0 0 1 8 14)" fill="#0B0217"/>
<rect width="1" height="1" transform="matrix(-1 0 0 1 7 13)" fill="#0B0217"/>
<rect width="1" height="1" transform="matrix(-1 0 0 1 13 13)" fill="#0B0217"/>
<rect width="1" height="1" transform="matrix(-1 0 0 1 12 14)" fill="#0B0217"/>
<rect width="1" height="1" transform="matrix(-1 0 0 1 16 14)" fill="#0B0217"/>
<rect width="1" height="1" transform="matrix(-1 0 0 1 16 13)" fill="#A63D27"/>
<rect width="1" height="1" transform="matrix(-1 0 0 1 15 13)" fill="#A63D27"/>
<rect width="1" height="1" transform="matrix(-1 0 0 1 14 13)" fill="#A63D27"/>
<rect width="1" height="1" transform="matrix(-1 0 0 1 10 8)" fill="#0B0217"/>
<rect width="1" height="1" transform="matrix(-1 0 0 1 14 12)" fill="#0B0217"/>
<rect width="1" height="1" transform="matrix(-1 0 0 1 18 12)" fill="#0B0217"/>
<rect width="1" height="1" transform="matrix(-1 0 0 1 18 11)" fill="#A63D27"/>
<rect width="1" height="1" transform="matrix(-1 0 0 1 17 11)" fill="#A63D27"/>
<rect width="1" height="1" transform="matrix(-1 0 0 1 16 11)" fill="#A63D27"/>
<rect width="1" height="1" transform="matrix(-1 0 0 1 12 6)" fill="#0B0217"/>
<rect width="1" height="1" transform="matrix(-1 0 0 1 5 23)" fill="#0B0217"/>
<rect width="1" height="1" transform="matrix(-1 0 0 1 1 20)" fill="#0B0217"/>
<rect width="1" height="1" transform="matrix(-1 0 0 1 3 22)" fill="#0B0217"/>
<rect width="1" height="1" transform="matrix(-1 0 0 1 2 21)" fill="#0B0217"/>
<rect width="1" height="1" transform="matrix(-1 0 0 1 4 23)" fill="#0B0217"/>
<rect width="1" height="1" transform="matrix(-1 0 0 1 11 19)" fill="#0B0217"/>
<rect width="1" height="1" transform="matrix(-1 0 0 1 10 20)" fill="#0B0217"/>
<rect width="1" height="1" transform="matrix(-1 0 0 1 9 19)" fill="#42799B"/>
<rect width="1" height="1" transform="matrix(-1 0 0 1 8 18)" fill="#42799B"/>
<rect width="1" height="1" transform="matrix(-1 0 0 1 9 21)" fill="#0B0217"/>
<rect width="1" height="1" transform="matrix(-1 0 0 1 4 14)" fill="#0B0217"/>
<rect width="1" height="1" transform="matrix(-1 0 0 1 3 15)" fill="#0B0217"/>
<rect width="1" height="1" transform="matrix(-1 0 0 1 5 13)" fill="#0B0217"/>
<rect width="1" height="1" transform="matrix(-1 0 0 1 13 17)" fill="#0B0217"/>
<rect width="1" height="1" transform="matrix(-1 0 0 1 13 16)" fill="#A63D27"/>
<rect width="1" height="1" transform="matrix(-1 0 0 1 12 16)" fill="#A63D27"/>
<rect width="1" height="1" transform="matrix(-1 0 0 1 12 17)" fill="#A63D27"/>
<rect width="1" height="1" transform="matrix(-1 0 0 1 11 16)" fill="#A63D27"/>
<rect width="1" height="1" transform="matrix(-1 0 0 1 7 11)" fill="#0B0217"/>
<rect width="1" height="1" transform="matrix(-1 0 0 1 11 15)" fill="#0B0217"/>
<rect width="1" height="1" transform="matrix(-1 0 0 1 10 16)" fill="#0B0217"/>
<rect width="1" height="1" transform="matrix(-1 0 0 1 9 15)" fill="#0B0217"/>
<rect width="1" height="1" transform="matrix(-1 0 0 1 15 15)" fill="#0B0217"/>
<rect width="1" height="1" transform="matrix(-1 0 0 1 15 14)" fill="#A63D27"/>
<rect width="1" height="1" transform="matrix(-1 0 0 1 14 14)" fill="#A63D27"/>
<rect width="1" height="1" transform="matrix(-1 0 0 1 13 14)" fill="#A63D27"/>
<rect width="1" height="1" transform="matrix(-1 0 0 1 9 9)" fill="#0B0217"/>
<rect width="1" height="1" transform="matrix(-1 0 0 1 10 12)" fill="#0B0217"/>
<rect width="1" height="1" transform="matrix(-1 0 0 1 17 13)" fill="#0B0217"/>
<rect width="1" height="1" transform="matrix(-1 0 0 1 17 12)" fill="#A63D27"/>
<rect width="1" height="1" transform="matrix(-1 0 0 1 16 12)" fill="#A63D27"/>
<rect width="1" height="1" transform="matrix(-1 0 0 1 15 12)" fill="#A63D27"/>
<rect width="1" height="1" transform="matrix(-1 0 0 1 11 7)" fill="#0B0217"/>
<rect width="1" height="1" transform="matrix(-1 0 0 1 12 10)" fill="#0B0217"/>
<rect width="1" height="1" transform="matrix(-1 0 0 1 19 3)" fill="#0B0217"/>
<rect width="1" height="1" transform="matrix(-1 0 0 1 15 11)" fill="#0B0217"/>
<rect width="1" height="1" transform="matrix(-1 0 0 1 14 8)" fill="#0B0217"/>
<rect width="1" height="1" transform="matrix(-1 0 0 1 17 9)" fill="#0B0217"/>
<rect width="1" height="1" transform="matrix(-1 0 0 1 13 9)" fill="#0B0217"/>
<rect width="1" height="1" transform="matrix(-1 0 0 1 16 10)" fill="#0B0217"/>
<rect width="1" height="1" transform="matrix(-1 0 0 1 16 6)" fill="#0B0217"/>
<rect width="1" height="1" transform="matrix(-1 0 0 1 17 5)" fill="#0B0217"/>
<rect width="1" height="1" transform="matrix(-1 0 0 1 18 4)" fill="#0B0217"/>
<rect width="1" height="1" transform="matrix(-1 0 0 1 20 2)" fill="#0B0217"/>
<rect width="1" height="1" transform="matrix(-1 0 0 1 19 7)" fill="#0B0217"/>
<rect width="1" height="1" transform="matrix(-1 0 0 1 21 5)" fill="#0B0217"/>
<rect width="1" height="1" transform="matrix(-1 0 0 1 22 4)" fill="#0B0217"/>
<rect width="1" height="1" transform="matrix(-1 0 0 1 15 7)" fill="#0B0217"/>
<rect width="1" height="1" transform="matrix(-1 0 0 1 18 8)" fill="#0B0217"/>
<rect width="1" height="1" transform="matrix(-1 0 0 1 19 11)" fill="#0B0217"/>
<rect width="1" height="1" transform="matrix(-1 0 0 1 19 10)" fill="#A63D27"/>
<rect width="1" height="1" transform="matrix(-1 0 0 1 18 10)" fill="#A63D27"/>
<rect width="1" height="1" transform="matrix(-1 0 0 1 17 10)" fill="#A63D27"/>
<rect width="1" height="1" transform="matrix(-1 0 0 1 20 10)" fill="#0B0217"/>
<rect width="1" height="1" transform="matrix(-1 0 0 1 20 9)" fill="#A63D27"/>
<rect width="1" height="1" transform="matrix(-1 0 0 1 19 9)" fill="#A63D27"/>
<rect width="1" height="1" transform="matrix(-1 0 0 1 18 9)" fill="#A63D27"/>
<rect width="1" height="1" transform="matrix(-1 0 0 1 13 5)" fill="#0B0217"/>
<rect width="1" height="1" transform="matrix(-1 0 0 1 14 4)" fill="#0B0217"/>
<rect width="1" height="1" transform="matrix(-1 0 0 1 21 9)" fill="#0B0217"/>
<rect width="1" height="1" transform="matrix(-1 0 0 1 21 8)" fill="#A63D27"/>
<rect width="1" height="1" transform="matrix(-1 0 0 1 20 8)" fill="#A63D27"/>
<rect width="1" height="1" transform="matrix(-1 0 0 1 19 8)" fill="#A63D27"/>
<rect width="1" height="1" transform="matrix(-1 0 0 1 15 3)" fill="#0B0217"/>
<rect width="1" height="1" transform="matrix(-1 0 0 1 22 8)" fill="#0B0217"/>
<rect width="1" height="1" transform="matrix(-1 0 0 1 22 7)" fill="#A63D27"/>
<rect width="1" height="1" transform="matrix(-1 0 0 1 21 7)" fill="#A63D27"/>
<rect width="1" height="1" transform="matrix(-1 0 0 1 20 7)" fill="#A63D27"/>
<rect width="1" height="1" transform="matrix(-1 0 0 1 20 6)" fill="#A63D27"/>
<rect width="1" height="1" transform="matrix(-1 0 0 1 23 7)" fill="#0B0217"/>
<rect width="1" height="1" transform="matrix(-1 0 0 1 23 6)" fill="#A63D27"/>
<rect width="1" height="1" transform="matrix(-1 0 0 1 23 5)" fill="#A63D27"/>
<rect width="1" height="1" transform="matrix(-1 0 0 1 23 4)" fill="#A63D27"/>
<rect width="1" height="1" transform="matrix(-1 0 0 1 22 6)" fill="#A63D27"/>
<rect width="1" height="1" transform="matrix(-1 0 0 1 22 5)" fill="#A63D27"/>
<rect width="1" height="1" transform="matrix(-1 0 0 1 21 6)" fill="#A63D27"/>
<rect width="1" height="1" transform="matrix(-1 0 0 1 17 1)" fill="#0B0217"/>
<rect width="1" height="1" transform="matrix(-1 0 0 1 16 2)" fill="#0B0217"/>
<rect width="1" height="1" transform="matrix(-1 0 0 1 24 6)" fill="#0B0217"/>
<rect width="1" height="1" transform="matrix(-1 0 0 1 18 0)" fill="#0B0217"/>
<rect width="1" height="1" transform="matrix(-1 0 0 1 19 0)" fill="#0B0217"/>
<rect width="1" height="1" transform="matrix(-1 0 0 1 20 0)" fill="#0B0217"/>
<rect width="1" height="1" transform="matrix(-1 0 0 1 21 1)" fill="#0B0217"/>
<rect width="1" height="1" transform="matrix(-1 0 0 1 22 2)" fill="#0B0217"/>
<rect width="1" height="1" transform="matrix(-1 0 0 1 23 3)" fill="#0B0217"/>
<rect width="1" height="1" transform="matrix(-1 0 0 1 24 4)" fill="#0B0217"/>
<rect width="1" height="1" transform="matrix(-1 0 0 1 24 5)" fill="#0B0217"/>
<rect width="1" height="1" transform="matrix(-1 0 0 1 10 10)" fill="#F26643"/>
<rect width="1" height="1" transform="matrix(-1 0 0 1 9 10)" fill="#F26643"/>
<rect width="1" height="1" transform="matrix(-1 0 0 1 10 11)" fill="#F26643"/>
<rect width="1" height="1" transform="matrix(-1 0 0 1 11 12)" fill="#F26643"/>
<rect width="1" height="1" transform="matrix(-1 0 0 1 12 12)" fill="#F26643"/>
<rect width="1" height="1" transform="matrix(-1 0 0 1 12 13)" fill="#F26643"/>
<rect width="1" height="1" transform="matrix(-1 0 0 1 13 7)" fill="#F26643"/>
<rect width="1" height="1" transform="matrix(-1 0 0 1 12 7)" fill="#F26643"/>
<rect width="1" height="1" transform="matrix(-1 0 0 1 13 8)" fill="#F26643"/>
<rect width="1" height="1" transform="matrix(-1 0 0 1 14 9)" fill="#F26643"/>
<rect width="1" height="1" transform="matrix(-1 0 0 1 15 9)" fill="#F26643"/>
<rect width="1" height="1" transform="matrix(-1 0 0 1 15 10)" fill="#F26643"/>
<rect width="1" height="1" transform="matrix(-1 0 0 1 16 4)" fill="#F26643"/>
<rect width="1" height="1" transform="matrix(-1 0 0 1 15 4)" fill="#F26643"/>
<rect width="1" height="1" transform="matrix(-1 0 0 1 16 5)" fill="#F26643"/>
<rect width="1" height="1" transform="matrix(-1 0 0 1 17 6)" fill="#F26643"/>
<rect width="1" height="1" transform="matrix(-1 0 0 1 18 6)" fill="#F26643"/>
<rect width="1" height="1" transform="matrix(-1 0 0 1 18 7)" fill="#F26643"/>
<rect width="1" height="1" transform="matrix(-1 0 0 1 19 1)" fill="#F26643"/>
<rect width="1" height="1" transform="matrix(-1 0 0 1 20 1)" fill="#F26643"/>
<rect width="1" height="1" transform="matrix(-1 0 0 1 18 1)" fill="#F26643"/>
<rect width="1" height="1" transform="matrix(-1 0 0 1 19 2)" fill="#F26643"/>
<rect width="1" height="1" transform="matrix(-1 0 0 1 20 3)" fill="#F26643"/>
<rect width="1" height="1" transform="matrix(-1 0 0 1 21 3)" fill="#F26643"/>
<rect width="1" height="1" transform="matrix(-1 0 0 1 22 3)" fill="#F26643"/>
<rect width="1" height="1" transform="matrix(-1 0 0 1 21 2)" fill="#F26643"/>
<rect width="1" height="1" transform="matrix(-1 0 0 1 21 4)" fill="#F26643"/>
<rect width="1" height="1" transform="matrix(-1 0 0 1 8 12)" fill="#F26643"/>
<rect width="1" height="1" transform="matrix(-1 0 0 1 7 12)" fill="#F26643"/>
<rect width="1" height="1" transform="matrix(-1 0 0 1 8 13)" fill="#F26643"/>
<rect width="1" height="1" transform="matrix(-1 0 0 1 9 14)" fill="#F26643"/>
<rect width="1" height="1" transform="matrix(-1 0 0 1 10 14)" fill="#F26643"/>
<rect width="1" height="1" transform="matrix(-1 0 0 1 10 15)" fill="#F26643"/>
<rect width="1" height="1" transform="matrix(-1 0 0 1 11 9)" fill="#F26643"/>
<rect width="1" height="1" transform="matrix(-1 0 0 1 10 9)" fill="#F26643"/>
<rect width="1" height="1" transform="matrix(-1 0 0 1 11 10)" fill="#F26643"/>
<rect width="1" height="1" transform="matrix(-1 0 0 1 11 11)" fill="#F26643"/>
<rect width="1" height="1" transform="matrix(-1 0 0 1 12 11)" fill="#F26643"/>
<rect width="1" height="1" transform="matrix(-1 0 0 1 13 11)" fill="#F26643"/>
<rect width="1" height="1" transform="matrix(-1 0 0 1 13 12)" fill="#F26643"/>
<rect width="1" height="1" transform="matrix(-1 0 0 1 14 6)" fill="#F26643"/>
<rect width="1" height="1" transform="matrix(-1 0 0 1 13 6)" fill="#F26643"/>
<rect width="1" height="1" transform="matrix(-1 0 0 1 14 7)" fill="#F26643"/>
<rect width="1" height="1" transform="matrix(-1 0 0 1 15 8)" fill="#F26643"/>
<rect width="1" height="1" transform="matrix(-1 0 0 1 16 8)" fill="#F26643"/>
<rect width="1" height="1" transform="matrix(-1 0 0 1 16 9)" fill="#F26643"/>
<rect width="1" height="1" transform="matrix(-1 0 0 1 17 3)" fill="#F26643"/>
<rect width="1" height="1" transform="matrix(-1 0 0 1 16 3)" fill="#F26643"/>
<rect width="1" height="1" transform="matrix(-1 0 0 1 17 4)" fill="#F26643"/>
<rect width="1" height="1" transform="matrix(-1 0 0 1 18 5)" fill="#F26643"/>
<rect width="1" height="1" transform="matrix(-1 0 0 1 19 5)" fill="#F26643"/>
<rect width="1" height="1" transform="matrix(-1 0 0 1 19 6)" fill="#F26643"/>
<rect width="1" height="1" transform="matrix(-1 0 0 1 9 11)" fill="#F26643"/>
<rect width="1" height="1" transform="matrix(-1 0 0 1 8 11)" fill="#F26643"/>
<rect width="1" height="1" transform="matrix(-1 0 0 1 9 12)" fill="#F26643"/>
<rect width="1" height="1" transform="matrix(-1 0 0 1 10 13)" fill="#F26643"/>
<rect width="1" height="1" transform="matrix(-1 0 0 1 11 13)" fill="#F26643"/>
<rect width="1" height="1" transform="matrix(-1 0 0 1 11 14)" fill="#F26643"/>
<rect width="1" height="1" transform="matrix(-1 0 0 1 12 8)" fill="#F26643"/>
<rect width="1" height="1" transform="matrix(-1 0 0 1 11 8)" fill="#F26643"/>
<rect width="1" height="1" transform="matrix(-1 0 0 1 12 9)" fill="#F26643"/>
<rect width="1" height="1" transform="matrix(-1 0 0 1 13 10)" fill="#F26643"/>
<rect width="1" height="1" transform="matrix(-1 0 0 1 14 10)" fill="#F26643"/>
<rect width="1" height="1" transform="matrix(-1 0 0 1 14 11)" fill="#F26643"/>
<rect width="1" height="1" transform="matrix(-1 0 0 1 15 5)" fill="#F26643"/>
<rect width="1" height="1" transform="matrix(-1 0 0 1 14 5)" fill="#F26643"/>
<rect width="1" height="1" transform="matrix(-1 0 0 1 15 6)" fill="#F26643"/>
<rect width="1" height="1" transform="matrix(-1 0 0 1 16 7)" fill="#F26643"/>
<rect width="1" height="1" transform="matrix(-1 0 0 1 17 7)" fill="#F26643"/>
<rect width="1" height="1" transform="matrix(-1 0 0 1 17 8)" fill="#F26643"/>
<rect width="1" height="1" transform="matrix(-1 0 0 1 18 2)" fill="#F26643"/>
<rect width="1" height="1" transform="matrix(-1 0 0 1 17 2)" fill="#F26643"/>
<rect width="1" height="1" transform="matrix(-1 0 0 1 18 3)" fill="#F26643"/>
<rect width="1" height="1" transform="matrix(-1 0 0 1 19 4)" fill="#F26643"/>
<rect width="1" height="1" transform="matrix(-1 0 0 1 20 4)" fill="#F26643"/>
<rect width="1" height="1" transform="matrix(-1 0 0 1 20 5)" fill="#F26643"/>
</svg>
