<svg width="87" height="50" viewBox="0 0 87 50" fill="none" xmlns="http://www.w3.org/2000/svg">
<path d="M70.9621 15.06L74.1036 8.45124C74.3205 7.90938 74.1036 7.25945 73.5618 7.04258C73.0199 6.82569 72.37 7.04258 72.1531 7.58444L69.0116 14.1932C66.195 12.8926 63.1616 11.7008 59.8031 10.7259L62.0786 3.68419C62.2955 3.14233 61.9706 2.49241 61.4287 2.27553C60.8868 2.05864 60.2369 2.3836 60.02 2.92546L57.6366 10.0761C54.8199 9.42618 51.8945 8.88432 48.8612 8.55938L48.5362 1.08371C48.5362 0.433788 47.9944 0 47.4525 0C46.8026 0 46.3688 0.541857 46.3688 1.08371L46.6938 8.23436C45.502 8.12629 44.3103 8.12629 43.1185 8.12629C41.1688 8.12629 39.2183 8.23436 37.3765 8.45126L36.5097 0.975586C36.4016 0.43373 35.8598 0.000699633 35.3179 0.000699633C34.7761 0.108767 34.343 0.650625 34.343 1.19248L35.2098 8.66815C32.1763 9.10118 29.2509 9.64304 26.4345 10.4018L24.4847 3.25112C24.3767 2.70926 23.726 2.3843 23.1849 2.49237C22.643 2.60044 22.3181 3.25112 22.4261 3.79222L24.3759 10.9429C21.0175 12.0266 17.7671 13.2184 14.9505 14.6262L10.9421 8.88421C10.6171 8.34236 9.96719 8.23429 9.42535 8.55925C8.88351 8.88421 8.77542 9.53414 9.10039 10.076L13.0006 16.0349C5.09199 20.2601 0 25.4603 0 28.8186C0 35.3194 20.368 49.1866 43.1194 49.1866C57.3118 49.1866 68.146 44.6363 73.3463 41.9278C81.255 37.7025 86.239 32.7185 86.239 28.8183C86.239 25.6768 80.2801 19.7179 70.9628 15.0596L70.9621 15.06ZM43.227 47.0204C20.6923 47.0204 2.27443 33.261 2.27443 28.7107C2.27443 24.4854 19.7172 10.5099 43.227 10.5099C53.0862 10.5099 61.9697 13.1103 68.7953 16.2519C69.0122 16.36 69.2284 16.4688 69.4453 16.5769C78.5456 21.019 84.0716 26.5442 84.0716 28.7108C84.0716 34.236 66.8449 47.0205 43.2273 47.0205L43.227 47.0204Z" fill="black"/>
<path d="M41.6016 44.0953C41.0597 44.0953 40.5179 43.9872 39.9768 43.9872C21.9921 42.4705 9.64155 33.6951 6.49968 30.2278C6.28279 29.9029 6.06665 29.686 5.95782 29.4691C5.74093 29.2522 5.41597 29.1441 5.19907 29.361C4.98218 29.5779 4.87411 29.9029 5.09101 30.1198C6.93269 32.9364 20.9091 44.0953 41.6017 45.1791C41.9266 45.1791 42.1435 44.9622 42.1435 44.6372C42.0355 44.4203 41.8186 44.2034 41.6017 44.0954L41.6016 44.0953Z" fill="black"/>
<path d="M53.5194 16.2515C45.8269 16.2515 39.5439 21.4516 39.5439 27.7353C39.5439 34.0191 45.8277 39.2192 53.5194 39.2192C61.212 39.2192 67.6039 34.0191 67.6039 27.7353C67.6039 21.4516 61.212 16.2515 53.5194 16.2515ZM53.5194 38.2445C46.3688 38.2445 40.6268 33.5863 40.6268 27.8435C40.6268 22.1015 46.4768 17.4424 53.5194 17.4424C60.6701 17.4424 66.5201 22.1007 66.5201 27.8435C66.5201 33.5855 60.6701 38.2445 53.5194 38.2445Z" fill="black"/>
<path d="M53.5192 21.4521C49.294 21.4521 45.7188 24.2688 45.7188 27.7359C45.7188 31.203 49.186 34.0196 53.5192 34.0196C57.7445 34.0196 61.3197 31.203 61.3197 27.7359C61.3197 24.2688 57.7445 21.4521 53.5192 21.4521ZM56.0109 28.3859C54.9272 28.3859 54.0611 27.736 54.0611 26.8692C54.0611 26.0024 54.928 25.3525 56.0109 25.3525C57.0946 25.3525 57.9606 26.0024 57.9606 26.8692C57.9614 27.736 57.0946 28.3859 56.0109 28.3859Z" fill="black"/>
</svg>
