<svg width="26" height="26" viewBox="0 0 26 26" fill="none" xmlns="http://www.w3.org/2000/svg">
<path d="M12.6888 4.68018C9.25598 4.68018 6.03238 4.94018 4.31598 5.30377C3.17238 5.56377 2.18316 6.34377 1.97598 7.54018C1.76879 8.78736 1.55957 10.6602 1.55957 13.0002C1.55957 15.3402 1.76676 17.1602 2.02676 18.4602C2.23598 19.6038 3.22316 20.4366 4.36676 20.6966C6.18879 21.0602 9.30676 21.3202 12.7396 21.3202C16.1724 21.3202 19.2904 21.0602 21.1104 20.6966C22.256 20.4366 23.2432 19.6566 23.4504 18.4602C23.6596 17.1602 23.9196 15.2894 23.9704 12.9494C23.9704 10.6094 23.7104 8.73658 23.4504 7.43658C23.2432 6.29299 22.256 5.46018 21.1104 5.20018C19.2904 4.94018 16.1196 4.68018 12.6888 4.68018ZM12.6888 5.72018C16.4324 5.72018 19.4468 6.03096 20.9032 6.29096C21.6832 6.50018 22.3068 7.02018 22.4104 7.69658C22.7232 9.36018 22.9304 11.1294 22.9304 12.9494C22.8796 15.1838 22.6196 17.0038 22.4104 18.3038C22.256 19.291 21.216 19.6038 20.9032 19.7094C19.0304 20.073 15.9104 20.331 12.7904 20.331C9.67035 20.331 6.49957 20.1238 4.67957 19.7094C3.89957 19.5002 3.27598 18.9802 3.17238 18.3038C2.75598 16.8474 2.59957 14.9238 2.59957 13.0002C2.59957 10.6074 2.80879 8.84018 3.01598 7.74939C3.17238 6.76018 4.26316 6.44736 4.52316 6.34377C6.23957 5.98018 9.41238 5.72018 12.6888 5.72018ZM9.87957 8.84018V17.1602L17.1596 13.0002L9.87957 8.84018ZM10.9196 10.6094L15.0796 13.0002L10.9196 15.391V10.6094Z" fill="#0B0217"/>
</svg>
