<svg width="26" height="26" viewBox="0 0 26 26" fill="none" xmlns="http://www.w3.org/2000/svg">
<g clip-path="url(#clip0_440_14)">
<path d="M17.794 2.84375C14.6842 2.84375 12.1553 5.37266 12.1553 8.4825C12.1553 8.66938 12.202 8.85219 12.2203 9.035C8.37513 8.66734 4.97482 6.81484 2.66528 3.98125C2.55763 3.84516 2.39107 3.77203 2.21638 3.78422C2.04372 3.79641 1.88935 3.89594 1.80403 4.04625C1.31857 4.88109 1.04028 5.84188 1.04028 6.87375C1.04028 8.12297 1.48716 9.26656 2.17778 10.205C2.04372 10.1461 1.89747 10.1136 1.77153 10.0425C1.61107 9.95719 1.4181 9.96125 1.26169 10.0547C1.10528 10.1481 1.00982 10.3167 1.00778 10.4975V10.5625C1.00778 12.478 1.99903 14.1416 3.46153 15.1613C3.44528 15.1592 3.42903 15.1653 3.41278 15.1613C3.23403 15.1308 3.05325 15.1938 2.93341 15.3298C2.81357 15.4659 2.77497 15.6548 2.82778 15.8275C3.40872 17.6333 4.89153 19.0125 6.72778 19.5163C5.26528 20.3856 3.56919 20.8975 1.73903 20.8975C1.34294 20.8975 0.963097 20.8772 0.585284 20.8325C0.341534 20.8 0.107941 20.9422 0.0266907 21.1738C-0.0565906 21.4053 0.0348157 21.6633 0.244034 21.7913C2.59013 23.2964 5.37497 24.18 8.36903 24.18C13.2217 24.18 17.0283 22.1528 19.5815 19.2563C22.1348 16.3597 23.4653 12.5978 23.4653 9.08375C23.4653 8.93547 23.4531 8.79125 23.449 8.645C24.4017 7.91578 25.2528 7.06063 25.919 6.06125C26.0511 5.86828 26.0368 5.61031 25.8845 5.43156C25.7342 5.25281 25.4803 5.19797 25.269 5.2975C25.0009 5.41734 24.6881 5.42953 24.4078 5.525C24.7775 5.03141 25.0943 4.49922 25.2853 3.9C25.3503 3.69484 25.2792 3.46938 25.1106 3.33531C24.942 3.20328 24.7064 3.18703 24.5215 3.29875C23.6339 3.82484 22.6508 4.19453 21.6128 4.42C20.6053 3.4775 19.2789 2.84375 17.794 2.84375ZM17.794 3.88375C19.1204 3.88375 20.3189 4.45047 21.1578 5.34625C21.2837 5.47625 21.4686 5.53109 21.6453 5.4925C22.3237 5.35844 22.9676 5.16141 23.5953 4.9075C23.2337 5.395 22.7868 5.81141 22.2628 6.12625C22.0251 6.24203 21.9134 6.51625 22.0008 6.76609C22.0861 7.01391 22.3461 7.15813 22.604 7.10125C23.124 7.03828 23.5872 6.82703 24.0828 6.695C23.6379 7.17641 23.1504 7.61109 22.6203 7.995C22.4761 8.10063 22.3968 8.27125 22.409 8.45C22.4172 8.66125 22.4253 8.87047 22.4253 9.08375C22.4253 12.3338 21.1781 15.862 18.8015 18.5575C16.425 21.253 12.9353 23.14 8.36903 23.14C6.29513 23.14 4.337 22.6809 2.56778 21.8725C4.76153 21.7039 6.78466 20.928 8.41778 19.6463C8.58841 19.5102 8.65544 19.2827 8.58638 19.0755C8.51731 18.8683 8.32638 18.7261 8.10903 18.72C6.39466 18.6895 4.95857 17.6922 4.19278 16.2825C4.22122 16.2825 4.2456 16.2825 4.27403 16.2825C4.78794 16.2825 5.29575 16.2175 5.76903 16.0875C5.99653 16.0205 6.15294 15.8092 6.14482 15.5716C6.13669 15.3339 5.9681 15.1308 5.73653 15.08C3.88607 14.7063 2.49872 13.1991 2.17778 11.3263C2.70185 11.507 3.2381 11.6492 3.81903 11.6675C4.05669 11.6817 4.272 11.5334 4.34513 11.308C4.41825 11.0825 4.32888 10.8347 4.12778 10.7088C2.89278 9.88203 2.08028 8.47438 2.08028 6.87375C2.08028 6.28063 2.23466 5.73625 2.43778 5.21625C5.03778 8.07016 8.67778 9.96531 12.789 10.1725C12.9515 10.1806 13.11 10.1136 13.2156 9.98969C13.3212 9.86375 13.3618 9.69719 13.3253 9.53875C13.2461 9.20156 13.1953 8.84406 13.1953 8.4825C13.1953 5.93531 15.2468 3.88375 17.794 3.88375Z" fill="black"/>
</g>
<defs>
<clipPath id="clip0_440_14">
<rect width="26" height="26" fill="white"/>
</clipPath>
</defs>
</svg>
