<svg width="26" height="26" viewBox="0 0 26 26" fill="none" xmlns="http://www.w3.org/2000/svg">
<path d="M8.31957 1.56006C4.59246 1.56006 1.55957 4.59295 1.55957 8.32006V17.6801C1.55957 21.4072 4.59246 24.4401 8.31957 24.4401H17.6796C21.4067 24.4401 24.4396 21.4072 24.4396 17.6801V8.32006C24.4396 4.59295 21.4067 1.56006 17.6796 1.56006H8.31957ZM8.31957 2.60006H17.6796C20.8445 2.60006 23.3996 5.15509 23.3996 8.32006V17.6801C23.3996 20.845 20.8445 23.4001 17.6796 23.4001H8.31957C5.1546 23.4001 2.59957 20.845 2.59957 17.6801V8.32006C2.59957 5.15509 5.1546 2.60006 8.31957 2.60006ZM19.2396 5.72006C18.9637 5.72006 18.6992 5.82963 18.5042 6.02467C18.3091 6.21971 18.1996 6.48423 18.1996 6.76006C18.1996 7.03588 18.3091 7.30041 18.5042 7.49545C18.6992 7.69049 18.9637 7.80006 19.2396 7.80006C19.5154 7.80006 19.7799 7.69049 19.975 7.49545C20.17 7.30041 20.2796 7.03588 20.2796 6.76006C20.2796 6.48423 20.17 6.21971 19.975 6.02467C19.7799 5.82963 19.5154 5.72006 19.2396 5.72006ZM12.9996 7.28006C9.84666 7.28006 7.27957 9.84715 7.27957 13.0001C7.27957 16.153 9.84666 18.7201 12.9996 18.7201C16.1525 18.7201 18.7196 16.153 18.7196 13.0001C18.7196 9.84715 16.1525 7.28006 12.9996 7.28006ZM12.9996 8.32006C15.5904 8.32006 17.6796 10.4092 17.6796 13.0001C17.6796 15.5909 15.5904 17.6801 12.9996 17.6801C10.4087 17.6801 8.31957 15.5909 8.31957 13.0001C8.31957 10.4092 10.4087 8.32006 12.9996 8.32006Z" fill="#0B0217"/>
</svg>
