<svg width="26" height="26" viewBox="0 0 26 26" fill="none" xmlns="http://www.w3.org/2000/svg">
<path d="M12.9996 1.56006C6.68758 1.56006 1.55957 6.68807 1.55957 13.0001C1.55957 18.73 5.78589 23.472 11.2903 24.2989L11.8875 24.3893V15.3746H9.18488V13.5444H11.8875V11.114C11.8875 9.61744 12.2466 8.63175 12.8411 8.01334C13.4357 7.39492 14.3141 7.08303 15.5366 7.08303C16.5141 7.08303 16.8944 7.14225 17.2561 7.18662V8.68467H15.9835C15.2614 8.68467 14.669 9.08753 14.3615 9.62412C14.054 10.1607 13.9583 10.8014 13.9583 11.4543V13.5434H17.1423L16.8589 15.3736H13.9583V24.4035L14.5484 24.3233C20.131 23.5661 24.4396 18.786 24.4396 13.0001C24.4396 6.68807 19.3116 1.56006 12.9996 1.56006ZM12.9996 2.60006C18.7495 2.60006 23.3996 7.25013 23.3996 13.0001C23.3996 18.0595 19.7782 22.2206 14.9983 23.1573V16.4136H17.7507L18.355 12.5034H14.9983V11.4543C14.9983 10.9148 15.097 10.4314 15.2634 10.1411C15.4298 9.85074 15.5901 9.72467 15.9835 9.72467H18.2961V6.24514L17.8451 6.1842C17.5332 6.142 16.8212 6.04303 15.5366 6.04303C14.131 6.04303 12.9245 6.42593 12.0916 7.29225C11.2587 8.15856 10.8475 9.44852 10.8475 11.114V12.5044H8.14488V16.4146H10.8475V23.1248C6.14441 22.1286 2.59957 18.0048 2.59957 13.0001C2.59957 7.25013 7.24964 2.60006 12.9996 2.60006Z" fill="#0B0217"/>
</svg>
