<svg width="26" height="26" viewBox="0 0 26 26" fill="none" xmlns="http://www.w3.org/2000/svg">
<path d="M9.83142 3.63977C9.83142 3.63977 6.52048 3.86727 4.35517 5.60602C4.34501 5.61008 4.33282 5.61617 4.32267 5.62227C3.94689 5.96961 3.66454 6.50789 3.31517 7.27977C2.96579 8.05164 2.5961 9.04492 2.25892 10.156C1.58657 12.3802 1.04017 15.1102 1.04017 17.6798C1.03814 17.7712 1.06048 17.8605 1.10517 17.9398C1.86485 19.2743 3.26235 20.0807 4.56642 20.5885C5.87048 21.0963 7.07501 21.2995 7.68642 21.3198C7.85907 21.3259 8.0236 21.2466 8.12517 21.1085L9.39267 19.3535C10.4144 19.5952 11.6128 19.7598 13.0002 19.7598C14.3875 19.7598 15.5859 19.5952 16.6077 19.3535L17.8752 21.1085C17.9767 21.2466 18.1413 21.3259 18.3139 21.3198C18.9253 21.2995 20.1299 21.0963 21.4339 20.5885C22.738 20.0807 24.1355 19.2743 24.8952 17.9398C24.9399 17.8605 24.9622 17.7712 24.9602 17.6798C24.9602 15.1102 24.4138 12.3802 23.7414 10.156C23.4042 9.04492 23.0345 8.05164 22.6852 7.27977C22.3358 6.50789 22.0534 5.96961 21.6777 5.62227C21.6675 5.61617 21.6553 5.61008 21.6452 5.60602C19.4799 3.86727 16.1689 3.63977 16.1689 3.63977C16.1303 3.6357 16.0938 3.6357 16.0552 3.63977C15.8744 3.66414 15.722 3.78195 15.6489 3.94852C15.6489 3.94852 15.4722 4.33648 15.3564 4.89102C14.3428 4.72852 13.4897 4.67977 13.0002 4.67977C12.5106 4.67977 11.6575 4.72852 10.6439 4.89102C10.5281 4.33648 10.3514 3.94852 10.3514 3.94852C10.262 3.74539 10.0528 3.62148 9.83142 3.63977ZM9.50642 4.76102C9.54501 4.86664 9.57142 4.96617 9.60392 5.08602C8.43188 5.3582 7.14813 5.80305 5.94767 6.54852C5.75876 6.62773 5.63485 6.81055 5.62876 7.0157C5.6247 7.21883 5.74048 7.40773 5.92329 7.49711C6.10813 7.58445 6.32751 7.55805 6.48392 7.42602C8.89298 5.93305 11.9581 5.71977 13.0002 5.71977C14.0422 5.71977 17.1074 5.93305 19.5164 7.42602C19.6728 7.55805 19.8922 7.58445 20.077 7.49711C20.2599 7.40773 20.3756 7.21883 20.3716 7.0157C20.3655 6.81055 20.2416 6.62773 20.0527 6.54852C18.8522 5.80305 17.5684 5.3582 16.3964 5.08602C16.4289 4.96617 16.4553 4.86664 16.4939 4.76102C17.087 4.83414 19.3925 5.14492 20.9627 6.38602C21.0642 6.47945 21.4177 6.99945 21.7427 7.71852C22.0677 8.43758 22.4089 9.37398 22.7339 10.4485C23.3677 12.5448 23.8795 15.1305 23.9039 17.501C23.3128 18.4577 22.2038 19.1687 21.0602 19.6135C20.0202 20.0177 19.0492 20.1985 18.5414 20.2473L17.6639 19.061C18.1108 18.9168 18.513 18.7604 18.8664 18.606C20.1786 18.0291 20.8814 17.4198 20.8814 17.4198C21.0967 17.2268 21.115 16.8957 20.922 16.6804C20.7291 16.4651 20.398 16.4468 20.1827 16.6398C20.1827 16.6398 19.6383 17.1374 18.4439 17.6635C18.0052 17.8565 17.473 18.0474 16.8677 18.216C16.7275 18.1998 16.5874 18.2404 16.4777 18.3298C15.5088 18.5654 14.357 18.7198 13.0002 18.7198C11.6331 18.7198 10.4794 18.5512 9.50642 18.3135C9.39673 18.2404 9.26267 18.2099 9.13267 18.2323C8.52532 18.0637 7.9972 17.8565 7.55642 17.6635C6.36204 17.1374 5.81767 16.6398 5.81767 16.6398C5.69985 16.5301 5.53735 16.4834 5.37892 16.5098C5.17782 16.5402 5.01126 16.6845 4.95642 16.8815C4.89954 17.0765 4.96454 17.2877 5.11892 17.4198C5.11892 17.4198 5.82173 18.0291 7.13392 18.606C7.48735 18.7604 7.88954 18.9168 8.33642 19.061L7.45892 20.2473C6.9511 20.1985 5.98017 20.0177 4.94017 19.6135C3.79657 19.1687 2.68751 18.4577 2.09642 17.501C2.12079 15.1305 2.63267 12.5448 3.26642 10.4485C3.59142 9.37398 3.93267 8.43758 4.25767 7.71852C4.58267 6.99945 4.9361 6.47945 5.03767 6.38602C6.60782 5.14492 8.91329 4.83414 9.50642 4.76102ZM9.62017 10.9198C8.29376 10.9198 7.28017 12.1243 7.28017 13.5198C7.28017 14.9152 8.29376 16.1198 9.62017 16.1198C10.9466 16.1198 11.9602 14.9152 11.9602 13.5198C11.9602 12.1243 10.9466 10.9198 9.62017 10.9198ZM16.3802 10.9198C15.0538 10.9198 14.0402 12.1243 14.0402 13.5198C14.0402 14.9152 15.0538 16.1198 16.3802 16.1198C17.7066 16.1198 18.7202 14.9152 18.7202 13.5198C18.7202 12.1243 17.7066 10.9198 16.3802 10.9198ZM9.62017 11.9598C10.3047 11.9598 10.9202 12.6179 10.9202 13.5198C10.9202 14.4216 10.3047 15.0798 9.62017 15.0798C8.93563 15.0798 8.32017 14.4216 8.32017 13.5198C8.32017 12.6179 8.93563 11.9598 9.62017 11.9598ZM16.3802 11.9598C17.0647 11.9598 17.6802 12.6179 17.6802 13.5198C17.6802 14.4216 17.0647 15.0798 16.3802 15.0798C15.6956 15.0798 15.0802 14.4216 15.0802 13.5198C15.0802 12.6179 15.6956 11.9598 16.3802 11.9598Z" fill="#0B0217"/>
</svg>
