<svg width="24" height="25" viewBox="0 0 24 25" fill="none" xmlns="http://www.w3.org/2000/svg">
<path d="M5 11H6V12H5V11Z" fill="#0B0217"/>
<path d="M4 12H5V13H4V12Z" fill="#0B0217"/>
<path d="M3 13H4V14H3V13Z" fill="#0B0217"/>
<path d="M2 14H3V15H2V14Z" fill="#0B0217"/>
<path d="M1 15H2V16H1V15Z" fill="#0B0217"/>
<path d="M0 16H1V17H0V16Z" fill="#0B0217"/>
<path d="M0 17H1V18H0V17Z" fill="#0B0217"/>
<path d="M0 18H1V19H0V18Z" fill="#0B0217"/>
<path d="M0 19H1V20H0V19Z" fill="#0B0217"/>
<path d="M0 20H1V21H0V20Z" fill="#0B0217"/>
<path d="M1 21H2V22H1V21Z" fill="#0B0217"/>
<path d="M2 22H3V23H2V22Z" fill="#0B0217"/>
<path d="M3 23H4V24H3V23Z" fill="#0B0217"/>
<path d="M4 24H5V25H4V24Z" fill="#0B0217"/>
<path d="M4 23H5V24H4V23Z" fill="#7A9BAC"/>
<path d="M4 22H5V23H4V22Z" fill="#B3C6CF"/>
<path d="M3 21H4V22H3V21Z" fill="#B3C6CF"/>
<path d="M3 22H4V23H3V22Z" fill="#7A9BAC"/>
<path d="M3 20H4V21H3V20Z" fill="#B3C6CF"/>
<path d="M1 20H2V21H1V20Z" fill="#7A9BAC"/>
<path d="M1 19H2V20H1V19Z" fill="#B3C6CF"/>
<path d="M1 18H2V19H1V18Z" fill="#B3C6CF"/>
<path d="M1 17H2V18H1V17Z" fill="#B3C6CF"/>
<path d="M1 16H2V17H1V16Z" fill="#B3C6CF"/>
<path d="M3 15H4V16H3V15Z" fill="#B3C6CF"/>
<path d="M2 15H3V16H2V15Z" fill="#B3C6CF"/>
<path d="M3 16H4V17H3V16Z" fill="#B3C6CF"/>
<path d="M4 14H5V15H4V14Z" fill="#B3C6CF"/>
<path d="M3 14H4V15H3V14Z" fill="#B3C6CF"/>
<path d="M4 13H5V14H4V13Z" fill="#B3C6CF"/>
<path d="M5 24H6V25H5V24Z" fill="#0B0217"/>
<path d="M5 23H6V24H5V23Z" fill="#7A9BAC"/>
<path d="M5 22H6V23H5V22Z" fill="#B3C6CF"/>
<path d="M4 21H5V22H4V21Z" fill="#B3C6CF"/>
<path d="M2 20H3V21H2V20Z" fill="#B3C6CF"/>
<path d="M2 21H3V22H2V21Z" fill="#7A9BAC"/>
<path d="M2 19H3V20H2V19Z" fill="#B3C6CF"/>
<path d="M2 18H3V19H2V18Z" fill="#B3C6CF"/>
<path d="M2 17H3V18H2V17Z" fill="#B3C6CF"/>
<path d="M2 16H3V17H2V16Z" fill="#B3C6CF"/>
<path d="M4 15H5V16H4V15Z" fill="#B3C6CF"/>
<path d="M5 14H6V15H5V14Z" fill="#B3C6CF"/>
<path d="M5 13H6V14H5V13Z" fill="#B3C6CF"/>
<path d="M5 12H6V13H5V12Z" fill="#B3C6CF"/>
<path d="M6 24H7V25H6V24Z" fill="#0B0217"/>
<path d="M6 23H7V24H6V23Z" fill="#7A9BAC"/>
<path d="M6 22H7V23H6V22Z" fill="#B3C6CF"/>
<path d="M7 24H8V25H7V24Z" fill="#0B0217"/>
<path d="M7 23H8V24H7V23Z" fill="#7A9BAC"/>
<path d="M7 22H8V23H7V22Z" fill="#B3C6CF"/>
<path d="M7 21H8V22H7V21Z" fill="#B3C6CF"/>
<path d="M9 21H10V22H9V21Z" fill="#B3C6CF"/>
<path d="M9 22H10V23H9V22Z" fill="#7A9BAC"/>
<path d="M9 20H10V21H9V20Z" fill="#B3C6CF"/>
<path d="M9 19H10V20H9V19Z" fill="#B3C6CF"/>
<path d="M11 19H12V20H11V19Z" fill="#B3C6CF"/>
<path d="M11 18H12V19H11V18Z" fill="#B3C6CF"/>
<path d="M11 17H12V18H11V17Z" fill="#B3C6CF"/>
<path d="M13 17H14V18H13V17Z" fill="#B3C6CF"/>
<path d="M13 18H14V19H13V18Z" fill="#7A9BAC"/>
<path d="M13 16H14V17H13V16Z" fill="#B3C6CF"/>
<path d="M13 15H14V16H13V15Z" fill="#B3C6CF"/>
<path d="M14 14H15V15H14V14Z" fill="#B3C6CF"/>
<path d="M14 13H15V14H14V13Z" fill="#B3C6CF"/>
<path d="M14 12H15V13H14V12Z" fill="#B3C6CF"/>
<path d="M14 11H15V12H14V11Z" fill="#B3C6CF"/>
<path d="M13 10H14V11H13V10Z" fill="#B3C6CF"/>
<path d="M13 11H14V12H13V11Z" fill="#B3C6CF"/>
<path d="M8 24H9V25H8V24Z" fill="#0B0217"/>
<path d="M8 23H9V24H8V23Z" fill="#7A9BAC"/>
<path d="M8 22H9V23H8V22Z" fill="#B3C6CF"/>
<path d="M8 21H9V22H8V21Z" fill="#B3C6CF"/>
<path d="M8 20H9V21H8V20Z" fill="#B3C6CF"/>
<path d="M10 21H11V22H10V21Z" fill="#7A9BAC"/>
<path d="M10 20H11V21H10V20Z" fill="#B3C6CF"/>
<path d="M11 20H12V21H11V20Z" fill="#7A9BAC"/>
<path d="M10 19H11V20H10V19Z" fill="#B3C6CF"/>
<path d="M10 18H11V19H10V18Z" fill="#B3C6CF"/>
<path d="M12 19H13V20H12V19Z" fill="#7A9BAC"/>
<path d="M12 18H13V19H12V18Z" fill="#B3C6CF"/>
<path d="M12 17H13V18H12V17Z" fill="#B3C6CF"/>
<path d="M12 16H13V17H12V16Z" fill="#B3C6CF"/>
<path d="M14 17H15V18H14V17Z" fill="#7A9BAC"/>
<path d="M14 16H15V17H14V16Z" fill="#B3C6CF"/>
<path d="M14 15H15V16H14V15Z" fill="#B3C6CF"/>
<path d="M15 14H16V15H15V14Z" fill="#B3C6CF"/>
<path d="M15 16H16V17H15V16Z" fill="#7A9BAC"/>
<path d="M15 13H16V14H15V13Z" fill="#B3C6CF"/>
<path d="M15 15H16V16H15V15Z" fill="#B3C6CF"/>
<path d="M15 12H16V13H15V12Z" fill="#B3C6CF"/>
<path d="M15 11H16V12H15V11Z" fill="#B3C6CF"/>
<path d="M14 10H15V11H14V10Z" fill="#B3C6CF"/>
<path d="M9 23H10V24H9V23Z" fill="#0B0217"/>
<path d="M10 22H11V23H10V22Z" fill="#0B0217"/>
<path d="M11 21H12V22H11V21Z" fill="#0B0217"/>
<path d="M12 20H13V21H12V20Z" fill="#0B0217"/>
<path d="M13 19H14V20H13V19Z" fill="#0B0217"/>
<path d="M14 18H15V19H14V18Z" fill="#0B0217"/>
<path d="M15 17H16V18H15V17Z" fill="#0B0217"/>
<path d="M16 16H17V17H16V16Z" fill="#0B0217"/>
<path d="M16 15H17V16H16V15Z" fill="#0B0217"/>
<path d="M16 14H17V15H16V14Z" fill="#0B0217"/>
<path d="M16 13H17V14H16V13Z" fill="#0B0217"/>
<path d="M16 12H17V13H16V12Z" fill="#0B0217"/>
<path d="M16 11H17V12H16V11Z" fill="#0B0217"/>
<path d="M15 10H16V11H15V10Z" fill="#0B0217"/>
<path d="M14 9H15V10H14V9Z" fill="#0B0217"/>
<path d="M13 9H14V10H13V9Z" fill="#0B0217"/>
<path d="M12 10H13V11H12V10Z" fill="#0B0217"/>
<path d="M12 11H13V12H12V11Z" fill="#0B0217"/>
<path d="M13 12H14V13H13V12Z" fill="#0B0217"/>
<path d="M13 13H14V14H13V13Z" fill="#0B0217"/>
<path d="M13 14H14V15H13V14Z" fill="#0B0217"/>
<path d="M12 15H13V16H12V15Z" fill="#0B0217"/>
<path d="M11 16H12V17H11V16Z" fill="#0B0217"/>
<path d="M10 17H11V18H10V17Z" fill="#0B0217"/>
<path d="M9 18H10V19H9V18Z" fill="#0B0217"/>
<path d="M8 19H9V20H8V19Z" fill="#0B0217"/>
<path d="M7 20H8V21H7V20Z" fill="#0B0217"/>
<path d="M6 21H7V22H6V21Z" fill="#0B0217"/>
<path d="M5 21H6V22H5V21Z" fill="#0B0217"/>
<path d="M4 20H5V21H4V20Z" fill="#0B0217"/>
<path d="M3 19H4V20H3V19Z" fill="#0B0217"/>
<path d="M3 18H4V19H3V18Z" fill="#0B0217"/>
<path d="M3 17H4V18H3V17Z" fill="#0B0217"/>
<path d="M4 16H5V17H4V16Z" fill="#0B0217"/>
<path d="M5 15H6V16H5V15Z" fill="#0B0217"/>
<path d="M6 14H7V15H6V14Z" fill="#0B0217"/>
<path d="M6 13H7V14H6V13Z" fill="#0B0217"/>
<path d="M6 12H7V13H6V12Z" fill="#0B0217"/>
<path d="M19 14L18 14L18 13L19 13L19 14Z" fill="#0B0217"/>
<path d="M20 13L19 13L19 12L20 12L20 13Z" fill="#0B0217"/>
<path d="M21 12L20 12L20 11L21 11L21 12Z" fill="#0B0217"/>
<path d="M22 11L21 11L21 10L22 10L22 11Z" fill="#0B0217"/>
<path d="M23 10L22 10L22 9L23 9L23 10Z" fill="#0B0217"/>
<path d="M24 9L23 9L23 8L24 8L24 9Z" fill="#0B0217"/>
<path d="M24 8L23 8L23 7L24 7L24 8Z" fill="#0B0217"/>
<path d="M24 7L23 7L23 6L24 6L24 7Z" fill="#0B0217"/>
<path d="M24 6L23 6L23 5L24 5L24 6Z" fill="#0B0217"/>
<path d="M24 5L23 5L23 4L24 4L24 5Z" fill="#0B0217"/>
<path d="M23 4L22 4L22 3L23 3L23 4Z" fill="#0B0217"/>
<path d="M22 3L21 3L21 2L22 2L22 3Z" fill="#0B0217"/>
<path d="M21 2L20 2L20 1L21 1L21 2Z" fill="#0B0217"/>
<path d="M20 1L19 1L19 -8.74228e-08L20 0L20 1Z" fill="#0B0217"/>
<path d="M20 2L19 2L19 1L20 1L20 2Z" fill="#B3C6CF"/>
<path d="M20 3L19 3L19 2L20 2L20 3Z" fill="#B3C6CF"/>
<path d="M21 4L20 4L20 3L21 3L21 4Z" fill="#B3C6CF"/>
<path d="M21 3L20 3L20 2L21 2L21 3Z" fill="#B3C6CF"/>
<path d="M21 5L20 5L20 4L21 4L21 5Z" fill="#B3C6CF"/>
<path d="M23 5L22 5L22 4L23 4L23 5Z" fill="#B3C6CF"/>
<path d="M23 6L22 6L22 5L23 5L23 6Z" fill="#B3C6CF"/>
<path d="M23 7L22 7L22 6L23 6L23 7Z" fill="#B3C6CF"/>
<path d="M23 8L22 8L22 7L23 7L23 8Z" fill="#B3C6CF"/>
<path d="M23 9L22 9L22 8L23 8L23 9Z" fill="#B3C6CF"/>
<path d="M21 10L20 10L20 9L21 9L21 10Z" fill="#B3C6CF"/>
<path d="M22 10L21 10L21 9L22 9L22 10Z" fill="#B3C6CF"/>
<path d="M21 9L20 9L20 8L21 8L21 9Z" fill="#B3C6CF"/>
<path d="M20 11L19 11L19 10L20 10L20 11Z" fill="#B3C6CF"/>
<path d="M21 11L20 11L20 10L21 10L21 11Z" fill="#B3C6CF"/>
<path d="M20 12L19 12L19 11L20 11L20 12Z" fill="#B3C6CF"/>
<path d="M19 1L18 1L18 -8.74228e-08L19 0L19 1Z" fill="#0B0217"/>
<path d="M19 2L18 2L18 1L19 1L19 2Z" fill="#B3C6CF"/>
<path d="M19 3L18 3L18 2L19 2L19 3Z" fill="#B3C6CF"/>
<path d="M20 4L19 4L19 3L20 3L20 4Z" fill="#B3C6CF"/>
<path d="M22 5L21 5L21 4L22 4L22 5Z" fill="#B3C6CF"/>
<path d="M22 4L21 4L21 3L22 3L22 4Z" fill="#B3C6CF"/>
<path d="M22 6L21 6L21 5L22 5L22 6Z" fill="#B3C6CF"/>
<path d="M22 7L21 7L21 6L22 6L22 7Z" fill="#B3C6CF"/>
<path d="M22 8L21 8L21 7L22 7L22 8Z" fill="#B3C6CF"/>
<path d="M22 9L21 9L21 8L22 8L22 9Z" fill="#B3C6CF"/>
<path d="M20 10L19 10L19 9L20 9L20 10Z" fill="#B3C6CF"/>
<path d="M19 11L18 11L18 10L19 10L19 11Z" fill="#B3C6CF"/>
<path d="M19 12L18 12L18 11L19 11L19 12Z" fill="#B3C6CF"/>
<path d="M19 13L18 13L18 12L19 12L19 13Z" fill="#B3C6CF"/>
<path d="M18 1L17 1L17 -8.74228e-08L18 0L18 1Z" fill="#0B0217"/>
<path d="M18 2L17 2L17 1L18 1L18 2Z" fill="#B3C6CF"/>
<path d="M18 3L17 3L17 2L18 2L18 3Z" fill="#B3C6CF"/>
<path d="M17 1L16 1L16 -8.74228e-08L17 0L17 1Z" fill="#0B0217"/>
<path d="M17 2L16 2L16 1L17 1L17 2Z" fill="#B3C6CF"/>
<path d="M17 3L16 3L16 2L17 2L17 3Z" fill="#B3C6CF"/>
<path d="M17 4L16 4L16 3L17 3L17 4Z" fill="#B3C6CF"/>
<path d="M15 4L14 4L14 3L15 3L15 4Z" fill="#B3C6CF"/>
<path d="M15 3L14 3L14 2L15 2L15 3Z" fill="#B3C6CF"/>
<path d="M15 5L14 5L14 4L15 4L15 5Z" fill="#B3C6CF"/>
<path d="M15 6L14 6L14 5L15 5L15 6Z" fill="#B3C6CF"/>
<path d="M13 6L12 6L12 5L13 5L13 6Z" fill="#B3C6CF"/>
<path d="M13 7L12 7L12 6L13 6L13 7Z" fill="#B3C6CF"/>
<path d="M13 8L12 8L12 7L13 7L13 8Z" fill="#B3C6CF"/>
<path d="M11 8L10 8L10 7L11 7L11 8Z" fill="#B3C6CF"/>
<path d="M11 7L10 7L10 6L11 6L11 7Z" fill="#B3C6CF"/>
<path d="M11 9L10 9L10 8L11 8L11 9Z" fill="#B3C6CF"/>
<path d="M11 10L10 10L10 9L11 9L11 10Z" fill="#B3C6CF"/>
<path d="M10 11L9 11L9 10L10 10L10 11Z" fill="#B3C6CF"/>
<path d="M10 12L9 12L9 11L10 11L10 12Z" fill="#B3C6CF"/>
<path d="M10 13L9 13L9 12L10 12L10 13Z" fill="#B3C6CF"/>
<path d="M10 14L9 14L9 13L10 13L10 14Z" fill="#B3C6CF"/>
<path d="M11 15L10 15L10 14L11 14L11 15Z" fill="#B3C6CF"/>
<path d="M11 14L10 14L10 13L11 13L11 14Z" fill="#B3C6CF"/>
<path d="M16 1L15 1L15 -8.74228e-08L16 0L16 1Z" fill="#0B0217"/>
<path d="M16 2L15 2L15 1L16 1L16 2Z" fill="#B3C6CF"/>
<path d="M16 3L15 3L15 2L16 2L16 3Z" fill="#B3C6CF"/>
<path d="M16 4L15 4L15 3L16 3L16 4Z" fill="#B3C6CF"/>
<path d="M16 5L15 5L15 4L16 4L16 5Z" fill="#B3C6CF"/>
<path d="M14 4L13 4L13 3L14 3L14 4Z" fill="#B3C6CF"/>
<path d="M14 5L13 5L13 4L14 4L14 5Z" fill="#B3C6CF"/>
<path d="M13 5L12 5L12 4L13 4L13 5Z" fill="#B3C6CF"/>
<path d="M14 6L13 6L13 5L14 5L14 6Z" fill="#B3C6CF"/>
<path d="M14 7L13 7L13 6L14 6L14 7Z" fill="#B3C6CF"/>
<path d="M12 6L11 6L11 5L12 5L12 6Z" fill="#B3C6CF"/>
<path d="M12 7L11 7L11 6L12 6L12 7Z" fill="#B3C6CF"/>
<path d="M12 8L11 8L11 7L12 7L12 8Z" fill="#B3C6CF"/>
<path d="M12 9L11 9L11 8L12 8L12 9Z" fill="#B3C6CF"/>
<path d="M10 8L9 8L9 7L10 7L10 8Z" fill="#B3C6CF"/>
<path d="M10 9L9 9L9 8L10 8L10 9Z" fill="#B3C6CF"/>
<path d="M10 10L9 10L9 9L10 9L10 10Z" fill="#B3C6CF"/>
<path d="M9 11L8 11L8 10L9 10L9 11Z" fill="#B3C6CF"/>
<path d="M9 9L8 9L8 8L9 8L9 9Z" fill="#B3C6CF"/>
<path d="M9 12L8 12L8 11L9 11L9 12Z" fill="#B3C6CF"/>
<path d="M9 10L8 10L8 9L9 9L9 10Z" fill="#B3C6CF"/>
<path d="M9 13L8 13L8 12L9 12L9 13Z" fill="#B3C6CF"/>
<path d="M9 14L8 14L8 13L9 13L9 14Z" fill="#B3C6CF"/>
<path d="M10 15L9 15L9 14L10 14L10 15Z" fill="#B3C6CF"/>
<path d="M15 2L14 2L14 1L15 1L15 2Z" fill="#0B0217"/>
<path d="M14 3L13 3L13 2L14 2L14 3Z" fill="#0B0217"/>
<path d="M13 4L12 4L12 3L13 3L13 4Z" fill="#0B0217"/>
<path d="M12 5L11 5L11 4L12 4L12 5Z" fill="#0B0217"/>
<path d="M11 6L10 6L10 5L11 5L11 6Z" fill="#0B0217"/>
<path d="M10 7L9 7L9 6L10 6L10 7Z" fill="#0B0217"/>
<path d="M9 8L8 8L8 7L9 7L9 8Z" fill="#0B0217"/>
<path d="M8 9L7 9L7 8L8 8L8 9Z" fill="#0B0217"/>
<path d="M8 10L7 10L7 9L8 9L8 10Z" fill="#0B0217"/>
<path d="M8 11L7 11L7 10L8 10L8 11Z" fill="#0B0217"/>
<path d="M8 12L7 12L7 11L8 11L8 12Z" fill="#0B0217"/>
<path d="M8 13L7 13L7 12L8 12L8 13Z" fill="#0B0217"/>
<path d="M8 14L7 14L7 13L8 13L8 14Z" fill="#0B0217"/>
<path d="M9 15L8 15L8 14L9 14L9 15Z" fill="#0B0217"/>
<path d="M10 16L9 16L9 15L10 15L10 16Z" fill="#0B0217"/>
<path d="M11 16L10 16L10 15L11 15L11 16Z" fill="#0B0217"/>
<path d="M12 15L11 15L11 14L12 14L12 15Z" fill="#0B0217"/>
<path d="M12 14L11 14L11 13L12 13L12 14Z" fill="#0B0217"/>
<path d="M11 13L10 13L10 12L11 12L11 13Z" fill="#0B0217"/>
<path d="M11 12L10 12L10 11L11 11L11 12Z" fill="#0B0217"/>
<path d="M11 11L10 11L10 10L11 10L11 11Z" fill="#0B0217"/>
<path d="M12 10L11 10L11 9L12 9L12 10Z" fill="#0B0217"/>
<path d="M13 9L12 9L12 8L13 8L13 9Z" fill="#0B0217"/>
<path d="M14 8L13 8L13 7L14 7L14 8Z" fill="#0B0217"/>
<path d="M15 7L14 7L14 6L15 6L15 7Z" fill="#0B0217"/>
<path d="M16 6L15 6L15 5L16 5L16 6Z" fill="#0B0217"/>
<path d="M17 5L16 5L16 4L17 4L17 5Z" fill="#0B0217"/>
<path d="M18 4L17 4L17 3L18 3L18 4Z" fill="#0B0217"/>
<path d="M19 4L18 4L18 3L19 3L19 4Z" fill="#0B0217"/>
<path d="M20 5L19 5L19 4L20 4L20 5Z" fill="#0B0217"/>
<path d="M21 6L20 6L20 5L21 5L21 6Z" fill="#0B0217"/>
<path d="M21 7L20 7L20 6L21 6L21 7Z" fill="#0B0217"/>
<path d="M21 8L20 8L20 7L21 7L21 8Z" fill="#0B0217"/>
<path d="M20 9L19 9L19 8L20 8L20 9Z" fill="#0B0217"/>
<path d="M19 10L18 10L18 9L19 9L19 10Z" fill="#0B0217"/>
<path d="M18 11L17 11L17 10L18 10L18 11Z" fill="#0B0217"/>
<path d="M18 12L17 12L17 11L18 11L18 12Z" fill="#0B0217"/>
<path d="M18 13L17 13L17 12L18 12L18 13Z" fill="#0B0217"/>
</svg>
