<svg width="24" height="24" viewBox="0 0 24 24" fill="none" xmlns="http://www.w3.org/2000/svg">
<rect x="2" y="23" width="1" height="1" fill="#0B0217"/>
<rect x="2" y="22" width="1" height="1" fill="#292929"/>
<rect x="2" y="21" width="1" height="1" fill="#0B0217"/>
<rect x="1" y="23" width="1" height="1" fill="#0B0217"/>
<rect x="1" y="22" width="1" height="1" fill="#0B0217"/>
<rect x="3" y="23" width="1" height="1" fill="#0B0217"/>
<rect x="3" y="22" width="1" height="1" fill="#292929"/>
<rect x="3" y="21" width="1" height="1" fill="#0B0217"/>
<rect x="4" y="23" width="1" height="1" fill="#0B0217"/>
<rect x="4" y="22" width="1" height="1" fill="#292929"/>
<rect x="4" y="21" width="1" height="1" fill="#0B0217"/>
<rect x="5" y="23" width="1" height="1" fill="#0B0217"/>
<rect x="5" y="22" width="1" height="1" fill="#292929"/>
<rect x="5" y="21" width="1" height="1" fill="#0B0217"/>
<rect x="6" y="23" width="1" height="1" fill="#0B0217"/>
<rect x="6" y="22" width="1" height="1" fill="#292929"/>
<rect x="6" y="21" width="1" height="1" fill="#0B0217"/>
<rect x="7" y="23" width="1" height="1" fill="#0B0217"/>
<rect x="7" y="22" width="1" height="1" fill="#292929"/>
<rect x="7" y="21" width="1" height="1" fill="#0B0217"/>
<rect x="8" y="23" width="1" height="1" fill="#0B0217"/>
<rect x="8" y="22" width="1" height="1" fill="#292929"/>
<rect x="8" y="21" width="1" height="1" fill="#0B0217"/>
<rect x="9" y="23" width="1" height="1" fill="#0B0217"/>
<rect x="9" y="22" width="1" height="1" fill="#292929"/>
<rect x="9" y="21" width="1" height="1" fill="#0B0217"/>
<rect x="10" y="23" width="1" height="1" fill="#0B0217"/>
<rect x="10" y="22" width="1" height="1" fill="#292929"/>
<rect x="10" y="21" width="1" height="1" fill="#0B0217"/>
<rect x="11" y="23" width="1" height="1" fill="#0B0217"/>
<rect x="11" y="22" width="1" height="1" fill="#292929"/>
<rect x="11" y="21" width="1" height="1" fill="#0B0217"/>
<rect x="12" y="23" width="1" height="1" fill="#0B0217"/>
<rect x="12" y="22" width="1" height="1" fill="#292929"/>
<rect x="12" y="21" width="1" height="1" fill="#0B0217"/>
<rect x="12" y="20" width="1" height="1" fill="#565559"/>
<rect x="11" y="20" width="1" height="1" fill="#565559"/>
<rect x="10" y="20" width="1" height="1" fill="#565559"/>
<rect x="10" y="19" width="1" height="1" fill="#565559"/>
<rect x="9" y="20" width="1" height="1" fill="#565559"/>
<rect x="9" y="19" width="1" height="1" fill="#565559"/>
<rect x="8" y="20" width="1" height="1" fill="#565559"/>
<rect x="8" y="19" width="1" height="1" fill="#565559"/>
<rect x="7" y="20" width="1" height="1" fill="#565559"/>
<rect x="5" y="20" width="1" height="1" fill="#0B0217"/>
<rect x="6" y="19" width="1" height="1" fill="#0B0217"/>
<rect x="7" y="18" width="1" height="1" fill="#0B0217"/>
<rect x="7" y="17" width="1" height="1" fill="#2A2829"/>
<rect x="7" y="16" width="1" height="1" fill="#565559"/>
<rect x="7" y="15" width="1" height="1" fill="#565559"/>
<rect x="7" y="14" width="1" height="1" fill="#565559"/>
<rect x="7" y="13" width="1" height="1" fill="#565559"/>
<rect y="18" width="1" height="1" fill="#0B0217"/>
<rect x="14" y="18" width="1" height="1" fill="#0B0217"/>
<rect x="14" y="17" width="1" height="1" fill="#2A2829"/>
<rect x="14" y="16" width="1" height="1" fill="#565559"/>
<rect x="14" y="15" width="1" height="1" fill="#565559"/>
<rect x="14" y="14" width="1" height="1" fill="#565559"/>
<rect x="14" y="13" width="1" height="1" fill="#565559"/>
<rect x="12" y="18" width="1" height="1" fill="#0B0217"/>
<rect x="12" y="17" width="1" height="1" fill="#2A2829"/>
<rect x="12" y="16" width="1" height="1" fill="#565559"/>
<rect x="12" y="15" width="1" height="1" fill="#565559"/>
<rect x="12" y="14" width="1" height="1" fill="#565559"/>
<rect x="12" y="13" width="1" height="1" fill="#565559"/>
<rect x="5" y="18" width="1" height="1" fill="#0B0217"/>
<rect x="5" y="17" width="1" height="1" fill="#2A2829"/>
<rect x="5" y="16" width="1" height="1" fill="#565559"/>
<rect x="5" y="15" width="1" height="1" fill="#565559"/>
<rect x="5" y="14" width="1" height="1" fill="#565559"/>
<rect x="5" y="13" width="1" height="1" fill="#565559"/>
<rect x="11" y="19" width="1" height="1" fill="#565559"/>
<rect x="10" y="18" width="1" height="1" fill="#0B0217"/>
<rect x="10" y="17" width="1" height="1" fill="#2A2829"/>
<rect x="10" y="16" width="1" height="1" fill="#565559"/>
<rect x="10" y="15" width="1" height="1" fill="#565559"/>
<rect x="10" y="14" width="1" height="1" fill="#565559"/>
<rect x="10" y="13" width="1" height="1" fill="#565559"/>
<rect x="3" y="18" width="1" height="1" fill="#0B0217"/>
<rect x="3" y="17" width="1" height="1" fill="#2A2829"/>
<rect x="3" y="16" width="1" height="1" fill="#565559"/>
<rect x="3" y="15" width="1" height="1" fill="#565559"/>
<rect x="3" y="14" width="1" height="1" fill="#565559"/>
<rect x="3" y="13" width="1" height="1" fill="#565559"/>
<rect x="17" y="18" width="1" height="1" fill="#0B0217"/>
<rect x="17" y="17" width="1" height="1" fill="#2A2829"/>
<rect x="17" y="16" width="1" height="1" fill="#565559"/>
<rect x="19" y="16" width="1" height="1" fill="#565559"/>
<rect x="17" y="15" width="1" height="1" fill="#565559"/>
<rect x="19" y="15" width="1" height="1" fill="#565559"/>
<rect x="20" y="15" width="1" height="1" fill="#565559"/>
<rect x="17" y="14" width="1" height="1" fill="#565559"/>
<rect x="19" y="14" width="1" height="1" fill="#565559"/>
<rect x="20" y="14" width="1" height="1" fill="#565559"/>
<rect x="21" y="14" width="1" height="1" fill="#565559"/>
<rect x="17" y="13" width="1" height="1" fill="#565559"/>
<rect x="19" y="13" width="1" height="1" fill="#565559"/>
<rect x="20" y="13" width="1" height="1" fill="#565559"/>
<rect x="21" y="13" width="1" height="1" fill="#565559"/>
<rect x="22" y="13" width="1" height="1" fill="#565559"/>
<rect y="17" width="1" height="1" fill="#0B0217"/>
<rect y="15" width="1" height="1" fill="#0B0217"/>
<rect x="19" y="12" width="1" height="1" fill="#0B0217"/>
<rect x="23" y="12" width="1" height="1" fill="#0B0217"/>
<rect x="21" y="15" width="1" height="1" fill="#0B0217"/>
<rect x="19" y="17" width="1" height="1" fill="#0B0217"/>
<rect y="13" width="1" height="1" fill="#0B0217"/>
<rect y="16" width="1" height="1" fill="#0B0217"/>
<rect y="14" width="1" height="1" fill="#0B0217"/>
<rect x="17" y="12" width="1" height="1" fill="#0B0217"/>
<rect x="15" y="12" width="1" height="1" fill="#0B0217"/>
<rect x="13" y="12" width="1" height="1" fill="#0B0217"/>
<rect x="11" y="12" width="1" height="1" fill="#0B0217"/>
<rect x="9" y="12" width="1" height="1" fill="#0B0217"/>
<rect x="7" y="12" width="1" height="1" fill="#0B0217"/>
<rect x="5" y="12" width="1" height="1" fill="#0B0217"/>
<rect x="3" y="12" width="1" height="1" fill="#0B0217"/>
<rect x="2" y="12" width="1" height="1" fill="#0B0217"/>
<rect y="12" width="1" height="1" fill="#0B0217"/>
<rect x="13" y="23" width="1" height="1" fill="#0B0217"/>
<rect x="13" y="22" width="1" height="1" fill="#292929"/>
<rect x="13" y="21" width="1" height="1" fill="#0B0217"/>
<rect x="13" y="20" width="1" height="1" fill="#0B0217"/>
<rect x="6" y="20" width="1" height="1" fill="#565559"/>
<rect x="7" y="19" width="1" height="1" fill="#565559"/>
<rect x="8" y="18" width="1" height="1" fill="#0B0217"/>
<rect x="8" y="17" width="1" height="1" fill="#2A2829"/>
<rect x="8" y="16" width="1" height="1" fill="#565559"/>
<rect x="8" y="15" width="1" height="1" fill="#565559"/>
<rect x="8" y="14" width="1" height="1" fill="#565559"/>
<rect x="8" y="13" width="1" height="1" fill="#565559"/>
<rect x="1" y="18" width="1" height="1" fill="#0B0217"/>
<rect x="1" y="17" width="1" height="1" fill="#2A2829"/>
<rect x="1" y="16" width="1" height="1" fill="#565559"/>
<rect x="1" y="15" width="1" height="1" fill="#565559"/>
<rect x="1" y="14" width="1" height="1" fill="#565559"/>
<rect x="1" y="13" width="1" height="1" fill="#565559"/>
<rect x="15" y="18" width="1" height="1" fill="#0B0217"/>
<rect x="15" y="17" width="1" height="1" fill="#2A2829"/>
<rect x="15" y="16" width="1" height="1" fill="#565559"/>
<rect x="15" y="15" width="1" height="1" fill="#565559"/>
<rect x="15" y="14" width="1" height="1" fill="#565559"/>
<rect x="15" y="13" width="1" height="1" fill="#565559"/>
<rect x="13" y="18" width="1" height="1" fill="#0B0217"/>
<rect x="13" y="17" width="1" height="1" fill="#2A2829"/>
<rect x="13" y="16" width="1" height="1" fill="#565559"/>
<rect x="13" y="15" width="1" height="1" fill="#565559"/>
<rect x="13" y="14" width="1" height="1" fill="#565559"/>
<rect x="13" y="13" width="1" height="1" fill="#565559"/>
<rect x="6" y="18" width="1" height="1" fill="#0B0217"/>
<rect x="6" y="17" width="1" height="1" fill="#2A2829"/>
<rect x="6" y="16" width="1" height="1" fill="#565559"/>
<rect x="6" y="15" width="1" height="1" fill="#565559"/>
<rect x="6" y="14" width="1" height="1" fill="#565559"/>
<rect x="6" y="13" width="1" height="1" fill="#565559"/>
<rect x="9" y="18" width="1" height="1" fill="#0B0217"/>
<rect x="9" y="17" width="1" height="1" fill="#2A2829"/>
<rect x="9" y="16" width="1" height="1" fill="#565559"/>
<rect x="9" y="15" width="1" height="1" fill="#565559"/>
<rect x="9" y="14" width="1" height="1" fill="#565559"/>
<rect x="7" y="7" width="1" height="1" fill="#2A2829"/>
<rect x="7" y="6" width="1" height="1" fill="#4F4F4F"/>
<rect x="7" y="5" width="1" height="1" fill="#4F4F4F"/>
<rect x="7" y="4" width="1" height="1" fill="#4F4F4F"/>
<rect x="7" y="3" width="1" height="1" fill="#4F4F4F"/>
<rect x="7" y="2" width="1" height="1" fill="#4F4F4F"/>
<rect x="8" y="7" width="1" height="1" fill="#2A2829"/>
<rect x="8" y="6" width="1" height="1" fill="#4F4F4F"/>
<rect x="8" y="5" width="1" height="1" fill="#4F4F4F"/>
<rect x="8" y="4" width="1" height="1" fill="#4F4F4F"/>
<rect x="8" y="3" width="1" height="1" fill="#4F4F4F"/>
<rect x="8" y="2" width="1" height="1" fill="#4F4F4F"/>
<rect x="8" y="1" width="1" height="1" fill="#4F4F4F"/>
<rect x="9" y="7" width="1" height="1" fill="#2A2829"/>
<rect x="9" y="6" width="1" height="1" fill="#4F4F4F"/>
<rect x="9" y="5" width="1" height="1" fill="#4F4F4F"/>
<rect x="9" y="4" width="1" height="1" fill="#4F4F4F"/>
<rect x="9" y="3" width="1" height="1" fill="#4F4F4F"/>
<rect x="9" y="2" width="1" height="1" fill="#4F4F4F"/>
<rect x="9" y="1" width="1" height="1" fill="#4F4F4F"/>
<rect x="10" y="7" width="1" height="1" fill="#2A2829"/>
<rect x="10" y="6" width="1" height="1" fill="#4F4F4F"/>
<rect x="10" y="5" width="1" height="1" fill="#4F4F4F"/>
<rect x="10" y="4" width="1" height="1" fill="#4F4F4F"/>
<rect x="10" y="3" width="1" height="1" fill="#4F4F4F"/>
<rect x="10" y="2" width="1" height="1" fill="#4F4F4F"/>
<rect x="10" y="1" width="1" height="1" fill="#4F4F4F"/>
<rect x="9" y="13" width="1" height="1" fill="#565559"/>
<rect x="2" y="18" width="1" height="1" fill="#0B0217"/>
<rect x="2" y="17" width="1" height="1" fill="#2A2829"/>
<rect x="2" y="16" width="1" height="1" fill="#565559"/>
<rect x="2" y="15" width="1" height="1" fill="#565559"/>
<rect x="2" y="14" width="1" height="1" fill="#565559"/>
<rect x="2" y="13" width="1" height="1" fill="#565559"/>
<rect x="16" y="18" width="1" height="1" fill="#0B0217"/>
<rect x="16" y="17" width="1" height="1" fill="#2A2829"/>
<rect x="16" y="16" width="1" height="1" fill="#565559"/>
<rect x="16" y="15" width="1" height="1" fill="#565559"/>
<rect x="16" y="14" width="1" height="1" fill="#565559"/>
<rect x="16" y="13" width="1" height="1" fill="#565559"/>
<rect x="12" y="19" width="1" height="1" fill="#0B0217"/>
<rect x="11" y="18" width="1" height="1" fill="#0B0217"/>
<rect x="11" y="17" width="1" height="1" fill="#2A2829"/>
<rect x="11" y="16" width="1" height="1" fill="#565559"/>
<rect x="11" y="15" width="1" height="1" fill="#565559"/>
<rect x="11" y="14" width="1" height="1" fill="#565559"/>
<rect x="11" y="13" width="1" height="1" fill="#565559"/>
<rect x="4" y="18" width="1" height="1" fill="#0B0217"/>
<rect x="4" y="17" width="1" height="1" fill="#2A2829"/>
<rect x="4" y="16" width="1" height="1" fill="#565559"/>
<rect x="4" y="15" width="1" height="1" fill="#565559"/>
<rect x="4" y="14" width="1" height="1" fill="#565559"/>
<rect x="4" y="13" width="1" height="1" fill="#565559"/>
<rect x="18" y="18" width="1" height="1" fill="#0B0217"/>
<rect x="18" y="17" width="1" height="1" fill="#0B0217"/>
<rect x="18" y="15" width="1" height="1" fill="#0B0217"/>
<rect x="18" y="13" width="1" height="1" fill="#0B0217"/>
<rect x="22" y="12" width="1" height="1" fill="#0B0217"/>
<rect x="21" y="12" width="1" height="1" fill="#0B0217"/>
<rect x="20" y="12" width="1" height="1" fill="#0B0217"/>
<rect x="22" y="14" width="1" height="1" fill="#0B0217"/>
<rect x="20" y="16" width="1" height="1" fill="#0B0217"/>
<rect x="18" y="16" width="1" height="1" fill="#0B0217"/>
<rect x="18" y="14" width="1" height="1" fill="#0B0217"/>
<rect x="18" y="12" width="1" height="1" fill="#0B0217"/>
<rect x="23" y="13" width="1" height="1" fill="#0B0217"/>
<rect x="16" y="12" width="1" height="1" fill="#0B0217"/>
<rect x="14" y="12" width="1" height="1" fill="#0B0217"/>
<rect x="12" y="12" width="1" height="1" fill="#0B0217"/>
<rect x="10" y="12" width="1" height="1" fill="#0B0217"/>
<rect x="8" y="12" width="1" height="1" fill="#0B0217"/>
<rect x="6" y="12" width="1" height="1" fill="#0B0217"/>
<rect x="4" y="12" width="1" height="1" fill="#0B0217"/>
<rect x="6" y="8" width="1" height="1" fill="#0B0217"/>
<rect x="6" y="2" width="1" height="1" fill="#0B0217"/>
<rect x="11" y="2" width="1" height="1" fill="#0B0217"/>
<rect x="6" y="3" width="1" height="1" fill="#0B0217"/>
<rect x="5" y="3" width="1" height="1" fill="#0B0217"/>
<rect x="19" y="3" width="1" height="1" fill="#0B0217"/>
<rect x="19" y="4" width="1" height="1" fill="#AD652B"/>
<rect x="17" y="3" width="1" height="1" fill="#0B0217"/>
<rect x="17" y="4" width="1" height="1" fill="#AD652B"/>
<rect x="15" y="3" width="1" height="1" fill="#0B0217"/>
<rect x="15" y="4" width="1" height="1" fill="#AD652B"/>
<rect x="13" y="3" width="1" height="1" fill="#0B0217"/>
<rect x="13" y="4" width="1" height="1" fill="#AD652B"/>
<rect x="5" y="4" width="1" height="1" fill="#AD652B"/>
<rect x="4" y="3" width="1" height="1" fill="#0B0217"/>
<rect x="4" y="4" width="1" height="1" fill="#0B0217"/>
<rect x="18" y="3" width="1" height="1" fill="#0B0217"/>
<rect x="18" y="4" width="1" height="1" fill="#AD652B"/>
<rect x="16" y="3" width="1" height="1" fill="#0B0217"/>
<rect x="16" y="4" width="1" height="1" fill="#AD652B"/>
<rect x="14" y="3" width="1" height="1" fill="#0B0217"/>
<rect x="14" y="4" width="1" height="1" fill="#AD652B"/>
<rect x="12" y="3" width="1" height="1" fill="#0B0217"/>
<rect x="12" y="4" width="1" height="1" fill="#AD652B"/>
<rect x="20" y="3" width="1" height="1" fill="#0B0217"/>
<rect x="20" y="4" width="1" height="1" fill="#0B0217"/>
<rect x="20" y="5" width="1" height="1" fill="#0B0217"/>
<rect x="5" y="5" width="1" height="1" fill="#0B0217"/>
<rect x="19" y="5" width="1" height="1" fill="#0B0217"/>
<rect x="17" y="5" width="1" height="1" fill="#0B0217"/>
<rect x="15" y="5" width="1" height="1" fill="#0B0217"/>
<rect x="13" y="5" width="1" height="1" fill="#0B0217"/>
<rect x="4" y="5" width="1" height="1" fill="#0B0217"/>
<rect x="18" y="5" width="1" height="1" fill="#0B0217"/>
<rect x="16" y="5" width="1" height="1" fill="#0B0217"/>
<rect x="14" y="5" width="1" height="1" fill="#0B0217"/>
<rect x="12" y="5" width="1" height="1" fill="#0B0217"/>
<rect x="11" y="3" width="1" height="1" fill="#0B0217"/>
<rect x="6" y="4" width="1" height="1" fill="#0B0217"/>
<rect x="11" y="4" width="1" height="1" fill="#0B0217"/>
<rect x="6" y="5" width="1" height="1" fill="#0B0217"/>
<rect x="11" y="5" width="1" height="1" fill="#0B0217"/>
<rect x="6" y="6" width="1" height="1" fill="#0B0217"/>
<rect x="11" y="6" width="1" height="1" fill="#0B0217"/>
<rect x="6" y="7" width="1" height="1" fill="#0B0217"/>
<rect x="11" y="7" width="1" height="1" fill="#0B0217"/>
<rect x="7" y="8" width="1" height="1" fill="#0B0217"/>
<rect x="7" y="1" width="1" height="1" fill="#0B0217"/>
<rect x="11" y="1" width="1" height="1" fill="#0B0217"/>
<rect x="8" y="8" width="1" height="1" fill="#0B0217"/>
<rect x="8" width="1" height="1" fill="#0B0217"/>
<rect x="9" y="8" width="1" height="1" fill="#0B0217"/>
<rect x="9" width="1" height="1" fill="#0B0217"/>
<rect x="10" y="8" width="1" height="1" fill="#0B0217"/>
<rect x="10" width="1" height="1" fill="#0B0217"/>
<rect x="11" y="8" width="1" height="1" fill="#0B0217"/>
<rect x="13" y="10" width="1" height="1" fill="#FF921C"/>
<rect x="16" y="10" width="1" height="1" fill="#FF921C"/>
<rect x="4" y="10" width="1" height="1" fill="#FF921C"/>
<rect x="1" y="10" width="1" height="1" fill="#FF921C"/>
<rect x="3" y="9" width="1" height="1" fill="#E31F2D"/>
<rect y="9" width="1" height="1" fill="#E31F2D"/>
<rect x="16" y="10" width="1" height="1" fill="#FF921C"/>
<rect x="14" y="9" width="1" height="1" fill="#E31F2D"/>
<rect x="17" y="9" width="1" height="1" fill="#E31F2D"/>
<rect x="11" width="1" height="1" fill="#0B0217"/>
<rect x="1" y="12" width="1" height="1" fill="#0B0217"/>
<rect x="14" y="23" width="1" height="1" fill="#0B0217"/>
<rect x="14" y="22" width="1" height="1" fill="#292929"/>
<rect x="14" y="21" width="1" height="1" fill="#0B0217"/>
<rect x="15" y="23" width="1" height="1" fill="#0B0217"/>
<rect x="15" y="22" width="1" height="1" fill="#292929"/>
<rect x="15" y="21" width="1" height="1" fill="#0B0217"/>
<rect x="16" y="23" width="1" height="1" fill="#0B0217"/>
<rect x="16" y="22" width="1" height="1" fill="#292929"/>
<rect x="16" y="21" width="1" height="1" fill="#0B0217"/>
<rect x="17" y="23" width="1" height="1" fill="#0B0217"/>
<rect x="17" y="22" width="1" height="1" fill="#0B0217"/>
</svg>
