<svg width="24" height="20" viewBox="0 0 24 20" fill="none" xmlns="http://www.w3.org/2000/svg">
<rect x="17" y="13" width="1" height="1" transform="rotate(-180 17 13)" fill="#0B0217"/>
<rect x="18" y="13" width="1" height="1" transform="rotate(-180 18 13)" fill="#0B0217"/>
<rect x="19" y="13" width="1" height="1" transform="rotate(-180 19 13)" fill="#0B0217"/>
<rect x="20" y="13" width="1" height="1" transform="rotate(-180 20 13)" fill="#0B0217"/>
<rect x="21" y="13" width="1" height="1" transform="rotate(-180 21 13)" fill="#0B0217"/>
<rect x="22" y="13" width="1" height="1" transform="rotate(-180 22 13)" fill="#0B0217"/>
<rect x="23" y="13" width="1" height="1" transform="rotate(-180 23 13)" fill="#0B0217"/>
<rect x="24" y="13" width="1" height="1" transform="rotate(-180 24 13)" fill="#0B0217"/>
<rect x="23" y="14" width="1" height="1" transform="rotate(-180 23 14)" fill="#0B0217"/>
<rect x="23" y="12" width="1" height="1" transform="rotate(-180 23 12)" fill="#0B0217"/>
<rect x="22" y="11" width="1" height="1" transform="rotate(-180 22 11)" fill="#0B0217"/>
<rect x="21" y="10" width="1" height="1" transform="rotate(-180 21 10)" fill="#0B0217"/>
<rect x="20" y="9" width="1" height="1" transform="rotate(-180 20 9)" fill="#0B0217"/>
<rect x="19" y="8" width="1" height="1" transform="rotate(-180 19 8)" fill="#0B0217"/>
<rect x="18" y="7" width="1" height="1" transform="rotate(-180 18 7)" fill="#0B0217"/>
<rect x="17" y="6" width="1" height="1" transform="rotate(-180 17 6)" fill="#0B0217"/>
<rect x="22" y="15" width="1" height="1" transform="rotate(-180 22 15)" fill="#0B0217"/>
<rect x="21" y="16" width="1" height="1" transform="rotate(-180 21 16)" fill="#0B0217"/>
<rect x="20" y="17" width="1" height="1" transform="rotate(-180 20 17)" fill="#0B0217"/>
<rect x="19" y="18" width="1" height="1" transform="rotate(-180 19 18)" fill="#0B0217"/>
<rect x="18" y="19" width="1" height="1" transform="rotate(-180 18 19)" fill="#0B0217"/>
<rect x="17" y="20" width="1" height="1" transform="rotate(-180 17 20)" fill="#0B0217"/>
<rect x="16" y="13" width="1" height="1" transform="rotate(-180 16 13)" fill="#0B0217"/>
<rect x="15" y="13" width="1" height="1" transform="rotate(-180 15 13)" fill="#0B0217"/>
<rect x="14" y="13" width="1" height="1" transform="rotate(-180 14 13)" fill="#0B0217"/>
<rect x="13" y="13" width="1" height="1" transform="rotate(-180 13 13)" fill="#0B0217"/>
<rect x="12" y="13" width="1" height="1" transform="rotate(-180 12 13)" fill="#0B0217"/>
<rect x="11" y="13" width="1" height="1" transform="rotate(-180 11 13)" fill="#0B0217"/>
<rect x="10" y="13" width="1" height="1" transform="rotate(-180 10 13)" fill="#0B0217"/>
<rect x="9" y="13" width="1" height="1" transform="rotate(-180 9 13)" fill="#0B0217"/>
<rect x="8" y="13" width="1" height="1" transform="rotate(-180 8 13)" fill="#0B0217"/>
<rect x="7" y="13" width="1" height="1" transform="rotate(-180 7 13)" fill="#0B0217"/>
<rect x="6" y="13" width="1" height="1" transform="rotate(-180 6 13)" fill="#0B0217"/>
<rect x="5" y="13" width="1" height="1" transform="rotate(-180 5 13)" fill="#0B0217"/>
<rect x="4" y="13" width="1" height="1" transform="rotate(-180 4 13)" fill="#0B0217"/>
<rect x="3" y="12" width="1" height="1" transform="rotate(-180 3 12)" fill="#0B0217"/>
<rect x="2" y="11" width="1" height="1" transform="rotate(-180 2 11)" fill="#0B0217"/>
<rect x="1" y="10" width="1" height="1" transform="rotate(-180 1 10)" fill="#0B0217"/>
<rect x="1" y="9" width="1" height="1" transform="rotate(-180 1 9)" fill="#0B0217"/>
<rect x="1" y="8" width="1" height="1" transform="rotate(-180 1 8)" fill="#0B0217"/>
<rect x="1" y="7" width="1" height="1" transform="rotate(-180 1 7)" fill="#0B0217"/>
<rect x="1" y="6" width="1" height="1" transform="rotate(-180 1 6)" fill="#0B0217"/>
<rect x="1" y="5" width="1" height="1" transform="rotate(-180 1 5)" fill="#0B0217"/>
<rect x="1" y="4" width="1" height="1" transform="rotate(-180 1 4)" fill="#0B0217"/>
<rect x="2" y="3" width="1" height="1" transform="rotate(-180 2 3)" fill="#0B0217"/>
<rect x="3" y="2" width="1" height="1" transform="rotate(-180 3 2)" fill="#0B0217"/>
<rect x="4" y="1" width="1" height="1" transform="rotate(-180 4 1)" fill="#0B0217"/>
<rect x="5" y="1" width="1" height="1" transform="rotate(-180 5 1)" fill="#0B0217"/>
<rect x="6" y="1" width="1" height="1" transform="rotate(-180 6 1)" fill="#0B0217"/>
<rect x="7" y="1" width="1" height="1" transform="rotate(-180 7 1)" fill="#0B0217"/>
<rect x="8" y="1" width="1" height="1" transform="rotate(-180 8 1)" fill="#0B0217"/>
<rect x="9" y="1" width="1" height="1" transform="rotate(-180 9 1)" fill="#0B0217"/>
</svg>
