<svg width="71" height="71" viewBox="0 0 71 71" fill="none" xmlns="http://www.w3.org/2000/svg">
<path d="M35.408 0C28.4048 0 21.5587 2.07651 15.7347 5.96782C9.91209 9.85847 5.37367 15.3894 2.69423 21.8598C0.0147819 28.3295 -0.685835 35.4492 0.680892 42.3182C2.0483 49.1865 5.42134 55.4955 10.3738 60.4462C15.3265 65.3975 21.636 68.7692 28.5052 70.1346C35.3742 71.4995 42.4938 70.7969 48.9636 68.1155C55.4328 65.4347 60.9622 60.8949 64.8515 55.071C68.7409 49.247 70.816 42.4002 70.8142 35.3977C70.8142 29.1832 69.1785 23.078 66.0706 17.6964C62.9626 12.3147 58.4925 7.8458 53.1101 4.73929C47.7277 1.6326 41.6219 -0.00166704 35.4072 0.000166603L35.408 0ZM58.6702 16.3262C61.0411 15.4862 64.3275 18.6691 66.0164 23.4302C67.7062 28.1908 67.1553 32.7651 64.7936 33.5679C62.4325 34.3708 59.1279 31.2622 57.4473 26.4919C55.7674 21.7223 56.3273 17.1949 58.6702 16.3262ZM45.5358 56.9613C42.8387 55.659 39.9177 54.8828 36.9296 54.6744H36.5467L35.7907 54.5995H34.3627H32.925H31.8695C28.8788 54.8092 25.9552 55.5854 23.2534 56.8864C24.962 54.9916 29.2557 53.6659 34.3997 53.6659C39.5431 53.6659 43.8368 54.9916 45.5358 56.9614L45.5358 56.9613ZM8.93476 36.6679C8.44965 38.9176 6.69422 40.4576 5.01411 40.1033C3.33416 39.7484 2.36334 37.6204 2.83925 35.361C3.31525 33.1022 5.07979 31.5714 6.7599 31.9256C8.43985 32.2805 9.41067 34.4085 8.93476 36.6679ZM14.0691 30.4787C11.2685 30.9638 6.12513 28.6679 5.9571 27.221C4.82736 17.5312 18.2606 2.32355 30.1911 4.06051C33.4587 4.54562 35.7924 9.46574 34.8586 9.87597C20.5854 16.6063 17.7291 29.8443 14.0701 30.4777L14.0691 30.4787ZM23.2548 59.5669H23.2542C25.9551 60.8718 28.8788 61.6506 31.8703 61.8628H32.9622H34.4H35.8279H36.9303C39.9192 61.6518 42.8402 60.8724 45.5366 59.5669C43.8378 61.5457 39.5531 62.9183 34.3999 62.9183C29.2474 62.9176 24.9629 61.5457 23.2542 59.5669H23.2548ZM38.4233 68.043C34.3738 68.0423 30.3705 67.1802 26.6805 65.5132C35.8181 66.9099 45.1403 64.6693 52.6449 59.2713C60.1494 53.8733 65.2388 45.7483 66.8204 36.6409C66.9135 37.5747 66.9604 38.5077 66.9604 39.4415L66.961 39.4409C66.9682 47.0177 63.9664 54.287 58.6146 59.6509C53.2634 65.0151 46.0005 68.0338 38.4246 68.0436L38.4233 68.043Z" fill="black"/>
</svg>
