<svg width="95" height="94" viewBox="0 0 95 94" fill="none" xmlns="http://www.w3.org/2000/svg">
<path d="M83.7124 76.7113L83.746 76.1256C84.0574 70.7869 82.5688 69.4099 81.7825 69.0541C80.6346 67.4488 77.6626 66.7596 73.2625 65.7641C72.4456 65.5803 71.5821 65.3841 70.6749 65.1704C69.8697 64.9808 68.869 64.6672 67.759 64.2806C63.3664 62.5149 43.2965 52.1322 41.3734 51.0228C38.9607 49.6276 37.5962 51.4509 36.4993 52.9147C36.3629 53.0956 36.2258 53.2794 36.0836 53.4624C34.9816 54.8803 35.3237 56.3828 35.6839 57.2403C32.224 59.6916 28.12 60.51 24.0942 59.475C22.0695 58.9535 20.8946 58.0776 19.8561 57.3068C18.7431 56.4783 17.6878 55.695 16.1322 56.0509C13.6824 56.611 13.0274 65.1004 12.8625 70.7148L12.6182 71.0145C11.5446 72.3368 11.3813 75.3279 11.3638 78.0796L11.3594 78.717L11.9757 78.876C12.0479 78.8943 19.3843 80.7482 34.4479 81.0159C37.6285 81.0728 40.4635 81.2405 43.2042 81.4017C46.3353 81.587 49.2933 81.762 52.5251 81.762H52.5258C58.8272 81.762 67.3932 81.1807 83.146 76.8652L83.7124 76.7113ZM13.6425 72.4629C15.6022 72.8976 22.3646 74.1783 34.7817 74.4051C38.0915 74.4649 40.9694 74.6654 43.7517 74.8594C46.8121 75.0731 49.7031 75.2744 52.9004 75.2744C61.0339 75.2744 69.511 73.8807 81.1962 70.6177C81.3551 70.7614 81.6527 71.1502 81.8759 72.0239C62.2715 77.3203 53.6829 76.7521 43.7668 76.0921C40.872 75.8995 37.8782 75.6997 34.475 75.6392C22.2777 75.4225 15.3841 74.2002 13.2873 73.7648C13.377 73.263 13.4893 72.8079 13.6418 72.4629H13.6425ZM37.3732 54.4659C37.5227 54.2755 37.6664 54.0823 37.8064 53.8941C39.0776 52.1984 39.5123 51.836 40.5553 52.4369C40.8748 52.6207 41.6989 53.0634 42.8608 53.6753C39.5096 53.3952 37.7256 55.5293 37.7306 55.5278C37.5038 55.751 37.274 55.9632 37.0399 56.1696C36.9247 55.6788 36.9225 55.0464 37.3733 54.4659H37.3732ZM16.4954 57.6437C17.2875 57.4664 17.7973 57.8114 18.8803 58.6188C19.9239 59.3941 21.3504 60.4574 23.6865 61.0583C29.0296 62.4375 34.7074 60.8016 38.9442 56.619C38.9617 56.5971 40.3817 54.8861 43.2377 55.3711C42.4471 55.5213 41.8469 56.2149 41.8469 57.0493C41.8469 57.9923 42.6149 58.7603 43.5579 58.7603C44.5009 58.7603 45.2689 57.9923 45.2689 57.0493C45.2689 56.7357 45.1785 56.4461 45.0304 56.193L45.161 55.9786C45.3404 56.0596 45.5191 56.1354 45.7065 56.2324C46.185 56.4804 46.8056 56.7955 47.5102 57.1463L47.4263 57.2849C47.4 57.2841 47.376 57.2776 47.3497 57.2776C46.4067 57.2776 45.6387 58.0455 45.6387 58.9886C45.6387 59.9316 46.4067 60.6996 47.3497 60.6996C48.2927 60.6996 49.0607 59.9316 49.0607 58.9886C49.0607 58.675 48.9703 58.3854 48.8223 58.1323L48.9791 57.8734C49.7055 58.2286 50.5063 58.6152 51.345 59.0149L51.2174 59.2249C51.1911 59.2242 51.1671 59.2176 51.1408 59.2176C50.1978 59.2176 49.4298 59.9856 49.4298 60.9286C49.4298 61.8716 50.1978 62.6396 51.1408 62.6396C52.0838 62.6396 52.8518 61.8716 52.8518 60.9286C52.8518 60.615 52.7614 60.3255 52.6134 60.0724L52.8278 59.7172C53.6009 60.0812 54.3951 60.4502 55.2126 60.8258L55.0077 61.1635C54.9829 61.1628 54.9573 61.1562 54.9311 61.1562C53.988 61.1562 53.2208 61.9242 53.2208 62.8672C53.2208 63.8102 53.9888 64.5782 54.9311 64.5782C55.8741 64.5782 56.6421 63.8102 56.6421 62.8672C56.6421 62.5536 56.5516 62.264 56.4036 62.011L56.7085 61.507C57.5071 61.8673 58.3108 62.2269 59.1153 62.5784L58.7973 63.1021C58.7725 63.1013 58.747 63.0948 58.7208 63.0948C57.7777 63.0948 57.0105 63.8628 57.0105 64.8058C57.0105 65.7488 57.7785 66.5168 58.7208 66.5168C59.6638 66.5168 60.4318 65.7488 60.4318 64.8058C60.4318 64.4922 60.3413 64.2026 60.1933 63.9496L60.628 63.2304C61.4514 63.582 62.2624 63.9211 63.0567 64.2442L62.8663 64.5513C62.835 64.5505 62.8043 64.5418 62.7715 64.5418C61.8285 64.5418 61.0612 65.3098 61.0612 66.2521C61.0612 67.1951 61.8292 67.9631 62.7715 67.9631C63.7145 67.9631 64.4825 67.1951 64.4825 66.2521C64.4825 65.9457 64.3943 65.662 64.2535 65.4133L64.5963 64.8598C65.5109 65.2171 66.3737 65.5337 67.1899 65.8174C67.1986 65.8203 67.2096 65.8247 67.2168 65.8283V65.8276C68.3757 66.2309 69.4297 66.5598 70.2938 66.7633C71.2055 66.9777 72.0748 67.1739 72.8962 67.3599C75.8652 68.0309 78.3596 68.5961 79.6716 69.3364C65.8755 73.1092 58.3868 73.6395 52.8939 73.641C49.7519 73.641 46.8893 73.4419 43.8581 73.2304C41.0545 73.0342 38.1562 72.8329 34.8042 72.7716C23.4945 72.5667 16.8707 71.453 14.4847 70.9695C14.6897 64.1962 15.5984 58.1683 16.4956 57.6439L16.4954 57.6437ZM82.1441 75.4467C66.9419 79.5689 58.643 80.129 52.5283 80.129H52.5276C49.3448 80.129 46.4107 79.9562 43.3038 79.7716C40.5461 79.6083 37.6945 79.4398 34.4796 79.3829C22.1029 79.1626 15.0414 77.8666 13.0062 77.434C13.015 76.871 13.0376 76.1402 13.0952 75.3918C15.4313 75.8746 22.2906 77.0525 34.4509 77.2699C37.8132 77.3297 40.7867 77.5281 43.6632 77.7199C46.9167 77.9365 50.0273 78.1444 53.4194 78.1444C60.4867 78.1444 68.7878 77.2371 82.1166 73.6488C82.1508 74.1659 82.1691 74.7457 82.145 75.4466L82.1441 75.4467Z" fill="black"/>
<path d="M46.0177 70.8426C46.0177 71.7871 45.2519 72.5536 44.3067 72.5536C43.3615 72.5536 42.5957 71.7871 42.5957 70.8426C42.5957 69.8974 43.3615 69.1309 44.3067 69.1309C45.2519 69.1309 46.0177 69.8974 46.0177 70.8426Z" fill="black"/>
<path d="M51.5732 71.2032C51.5732 72.1477 50.8066 72.9142 49.8621 72.9142C48.9169 72.9142 48.1504 72.1477 48.1504 71.2032C48.1504 70.258 48.9169 69.4922 49.8621 69.4922C50.8066 69.4922 51.5732 70.258 51.5732 71.2032Z" fill="black"/>
<path d="M21.778 46.1071C21.9946 46.3872 22.282 46.6089 22.6306 46.7672C22.9814 46.9262 23.4037 47.0072 23.8887 47.0072H24.9929V50.0929H22.2929V51.7266H24.9929V52.8855H26.6266V51.7266H28.1283C29.4345 51.7266 30.2784 50.7515 30.2784 49.2424V47.8582C30.2784 46.3484 29.4346 45.374 28.1283 45.374H26.6266V42.3932H29.5607V40.7595H26.6266V39.6006H24.9929V40.7595L23.8887 40.7588C23.4095 40.7588 22.9872 40.8397 22.6342 40.9972C22.2871 41.1533 21.999 41.3743 21.778 41.6573C21.5833 41.9074 21.4425 42.2007 21.3608 42.5245C21.2813 42.8352 21.2412 43.183 21.2412 43.5645V44.2027C21.2412 44.5819 21.2813 44.9313 21.3601 45.2405C21.4425 45.5694 21.5796 45.8531 21.778 46.1069L21.778 46.1071ZM28.1291 47.0071C28.2567 47.0071 28.6454 47.0071 28.6454 47.8575V49.2418C28.6454 50.0922 28.2567 50.0922 28.1291 50.0922H26.6274V47.0065L28.1291 47.0071ZM22.8736 43.564C22.8736 43.3212 22.8962 43.1075 22.9422 42.9288C22.9692 42.8187 23.01 42.7326 23.0662 42.6611C23.1194 42.5926 23.1989 42.535 23.3017 42.489C23.3987 42.4452 23.5796 42.3935 23.8888 42.3935H24.993V45.3743H23.8888C23.5774 45.3743 23.3994 45.3232 23.3054 45.2809C23.2011 45.2342 23.1216 45.1752 23.0676 45.1066C23.01 45.0322 22.9706 44.9476 22.9422 44.8375C22.8962 44.6603 22.8736 44.4466 22.8736 44.2037L22.8736 43.564Z" fill="black"/>
<path d="M25.8085 55.8162C31.0873 55.8162 35.3831 51.5204 35.3831 46.2416C35.3831 40.9628 31.0888 36.667 25.8085 36.667C20.5297 36.667 16.2354 40.9628 16.2354 46.2416C16.2346 51.5212 20.5304 55.8162 25.8085 55.8162ZM25.8085 38.3013C30.1866 38.3013 33.7494 41.864 33.7494 46.2422C33.7494 50.6203 30.1866 54.1831 25.8085 54.1831C21.4303 54.1831 17.8691 50.6203 17.8691 46.2422C17.8683 41.8633 21.4311 38.3013 25.8085 38.3013Z" fill="black"/>
<path d="M24.9922 20.7544H26.6259V30.7624H24.9922V20.7544Z" fill="black"/>
<path d="M24.9922 13.6958H26.6259V17.9304H24.9922V13.6958Z" fill="black"/>
<path d="M18.0957 24.9883H19.7294V34.9975H18.0957V24.9883Z" fill="black"/>
<path d="M18.0977 17.9307H19.7314V22.1652H18.0977V17.9307Z" fill="black"/>
<path d="M31.8867 24.9883H33.5204V34.9975H31.8867V24.9883Z" fill="black"/>
<path d="M31.8887 17.9307H33.5224V22.1652H31.8887V17.9307Z" fill="black"/>
<path d="M28.4466 91.4215C28.4466 90.0001 27.2898 88.8433 25.8683 88.8433C24.4468 88.8433 23.29 90 23.29 91.4215C23.29 92.8431 24.4468 93.9998 25.8683 93.9998C27.2898 93.9998 28.4466 92.8431 28.4466 91.4215ZM24.1063 91.4215C24.1063 90.4501 24.8969 89.6602 25.8677 89.6602C26.8384 89.6602 27.629 90.4508 27.629 91.4215C27.629 92.3923 26.8384 93.1829 25.8677 93.1829C24.8969 93.1829 24.1063 92.3923 24.1063 91.4215Z" fill="black"/>
<path d="M5.56373 27.3971L4.39389 25.0269L3.22404 27.3964L0.609375 27.7764L2.50204 29.6216L2.0557 32.2267L4.39534 30.9971L6.73499 32.2267L6.28864 29.6216L8.18131 27.7764L5.56373 27.3971ZM5.64906 30.7345L4.3946 30.076L3.13941 30.7345L3.37937 29.3371L2.36414 28.3474L3.76664 28.144L4.39387 26.8727L5.0211 28.144L6.4236 28.3474L5.40837 29.3371L5.64906 30.7345Z" fill="black"/>
<path d="M24.5859 5.44336L24.2664 7.30387L25.9373 6.42576L27.6082 7.30387L27.2902 5.44336L28.6417 4.12545L26.7738 3.85342L25.9388 2.16064L25.1022 3.85342L23.2344 4.12545L24.5859 5.44336ZM25.6441 4.60026L25.9373 4.00658L26.2305 4.60026L26.8862 4.69507L26.4114 5.1582L26.5237 5.81168L25.938 5.50318L25.3524 5.81168L25.4647 5.1582L24.9885 4.69507L25.6441 4.60026Z" fill="black"/>
<path d="M87.2695 69.08L88.621 70.3979L88.3015 72.2585L89.9724 71.3804L91.6433 72.2585L91.3239 70.3979L92.6753 69.08L90.8075 68.808L89.9724 67.1152L89.1388 68.8087L87.2695 69.08ZM89.9738 68.9626L90.267 69.5563L90.9227 69.6511L90.4479 70.1142L90.5602 70.7677L89.9745 70.4592L89.3889 70.7677L89.5012 70.1142L89.0264 69.6511L89.6821 69.5563L89.9738 68.9626Z" fill="black"/>
<path d="M89.9723 9.99561L88.8907 13.325L85.3906 13.3257L88.2211 15.3833L87.141 18.7119L89.973 16.6544L92.805 18.7119L91.7234 15.3833L94.5539 13.3257H91.0546L89.9723 9.99561ZM90.7621 15.0711L91.2501 16.5721L89.9723 15.6443L88.6937 16.5735L89.1817 15.0718L87.9039 14.1426H89.4843L89.9722 12.641L90.4602 14.1426H92.0406L90.7621 15.0711Z" fill="black"/>
<path d="M81.3077 0.643066C79.8863 0.643066 78.7295 1.79978 78.7295 3.22133C78.7295 4.6428 79.8862 5.79959 81.3077 5.79959C82.7292 5.79959 83.886 4.64287 83.886 3.22133C83.886 1.79986 82.7293 0.643066 81.3077 0.643066ZM81.3077 4.9818C80.3363 4.9818 79.5464 4.1912 79.5464 3.22047C79.5464 2.24973 80.337 1.45913 81.3077 1.45913C82.2785 1.45913 83.0691 2.24973 83.0691 3.22047C83.0691 4.1912 82.2785 4.9818 81.3077 4.9818Z" fill="black"/>
<path d="M89.5664 48.3944C89.5664 49.5424 90.5 50.4758 91.6478 50.4758C92.7958 50.4758 93.7293 49.5423 93.7293 48.3944C93.7293 47.2465 92.7957 46.313 91.6478 46.313C90.4999 46.3137 89.5664 47.248 89.5664 48.3944ZM91.6478 47.1305C92.3451 47.1305 92.9125 47.6979 92.9125 48.3951C92.9125 49.0924 92.3451 49.6598 91.6478 49.6598C90.9506 49.6598 90.3832 49.0924 90.3832 48.3951C90.3832 47.6979 90.9506 47.1305 91.6478 47.1305Z" fill="black"/>
<path d="M8.70801 13.7268C8.70801 15.2197 9.92234 16.4341 11.4153 16.4341C12.9082 16.4341 14.1226 15.2197 14.1226 13.7268C14.1226 12.2339 12.9082 11.0195 11.4153 11.0195C9.92234 11.0195 8.70801 12.2339 8.70801 13.7268ZM13.3065 13.7268C13.3065 14.769 12.4582 15.6172 11.416 15.6172C10.3738 15.6172 9.5256 14.769 9.5256 13.7268C9.5256 12.6846 10.3738 11.8364 11.416 11.8364C12.4575 11.8364 13.3065 12.6846 13.3065 13.7268Z" fill="black"/>
<path d="M19.2347 90.7871L19.0342 91.5799C19.3901 91.6703 19.7519 91.7506 20.1165 91.8242L20.277 91.0234C19.9254 90.9512 19.5775 90.8732 19.2348 90.7871H19.2347Z" fill="black"/>
<path d="M13.4298 88.3764C12.8339 88.0183 12.2468 87.6252 11.6852 87.2065L11.1973 87.8622C11.78 88.2954 12.3897 88.7039 13.0082 89.0765L13.4298 88.3764Z" fill="black"/>
<path d="M10.0654 85.8726C9.54828 85.4022 9.04941 84.9011 8.58337 84.3848L7.97656 84.9318C8.4601 85.4686 8.97721 85.9893 9.51545 86.4772L10.0654 85.8726Z" fill="black"/>
<path d="M5.38574 81.4306C5.75843 82.0513 6.16467 82.661 6.59571 83.2437L7.2521 82.758C6.83858 82.1971 6.44474 81.6093 6.08663 81.0112L5.38574 81.4306Z" fill="black"/>
<path d="M15.281 89.3696L14.9316 90.1077C15.5858 90.4184 16.2649 90.6992 16.9468 90.9443L17.2225 90.1755C16.5639 89.9407 15.9112 89.6694 15.2811 89.3696H15.281Z" fill="black"/>
<path d="M2.22656 70.0319C2.22656 70.3915 2.23532 70.7496 2.25282 71.1055L3.06894 71.0661C3.0529 70.7233 3.04414 70.3776 3.04414 70.0312C3.04414 69.6775 3.0529 69.3223 3.0704 68.9649L2.25428 68.9248C2.23531 69.2953 2.22656 69.6636 2.22656 70.0319H2.22656Z" fill="black"/>
<path d="M5.09686 79.1588C4.7971 78.5251 4.52725 77.8738 4.29313 77.2188L3.52441 77.4944C3.76728 78.1727 4.04808 78.8503 4.35951 79.5074L5.09686 79.1588Z" fill="black"/>
<path d="M3.68307 75.2114C3.51313 74.5353 3.37457 73.8425 3.27391 73.1533L2.46582 73.2729C2.5723 73.9884 2.71524 74.7075 2.89174 75.4098L3.68307 75.2114Z" fill="black"/>
<path d="M3.46382 65.8089L2.66301 65.6484C2.59007 66.0131 2.52662 66.377 2.47266 66.7417L3.28075 66.8613C3.3318 66.5112 3.3938 66.1597 3.46381 65.8089L3.46382 65.8089Z" fill="black"/>
<path d="M92.996 77.831L92.1792 77.8135C92.1726 78.1694 92.1529 78.5238 92.1201 78.8732L92.9341 78.9476C92.9669 78.5793 92.9873 78.2066 92.996 77.831Z" fill="black"/>
<path d="M90.9756 83.3462L91.7246 83.6722C92.0492 82.9261 92.3146 82.1486 92.5174 81.3602L91.7253 81.1567C91.5343 81.9036 91.2812 82.6409 90.9756 83.3463V83.3462Z" fill="black"/>
<path d="M87.3387 89.4705L86.8201 88.8389C86.2242 89.3282 85.5853 89.7724 84.9209 90.1597L85.3322 90.8642C86.0353 90.4551 86.7092 89.9868 87.3386 89.4705H87.3387Z" fill="black"/>
<path d="M88.4883 87.2357L89.0995 87.7783C89.6421 87.1686 90.1373 86.5129 90.5742 85.8294L89.8857 85.3896C89.4714 86.0366 89.0017 86.6572 88.4883 87.2356L88.4883 87.2357Z" fill="black"/>
<path d="M80.7881 92.6254C81.5823 92.4569 82.3707 92.2213 83.13 91.926L82.8346 91.1646C82.1155 91.4432 81.3693 91.6656 80.6182 91.8253L80.7881 92.6254Z" fill="black"/>
<path d="M77.2568 92.1447L77.2393 92.9616C77.345 92.9637 77.4508 92.9645 77.5565 92.9645C77.8256 92.9645 78.0933 92.9579 78.3581 92.9441L78.3158 92.1279C77.9664 92.1469 77.612 92.1535 77.2568 92.1447Z" fill="black"/>
<path d="M91.2393 30.3062H92.0561V32.4847H91.2393V30.3062Z" fill="black"/>
<path d="M91.2393 34.6621H92.0561V36.8406H91.2393V34.6621Z" fill="black"/>
<path d="M91.2393 25.9482H92.0561V28.1268H91.2393V25.9482Z" fill="black"/>
<path d="M91.2393 39.0176H92.0561V41.1961H91.2393V39.0176Z" fill="black"/>
</svg>
