<svg width="24" height="24" viewBox="0 0 24 24" fill="none" xmlns="http://www.w3.org/2000/svg">
<rect width="1" height="1" transform="matrix(-1 0 0 1 1 23)" fill="#0B0217"/>
<rect width="1" height="1" transform="matrix(-1 0 0 1 1 22)" fill="#0B0217"/>
<rect width="1" height="1" transform="matrix(-1 0 0 1 2 22)" fill="#0B0217"/>
<rect width="1" height="1" transform="matrix(-1 0 0 1 2 21)" fill="#0B0217"/>
<rect width="1" height="1" transform="matrix(-1 0 0 1 1 21)" fill="#0B0217"/>
<rect width="1" height="1" transform="matrix(-1 0 0 1 1 20)" fill="#0B0217"/>
<rect width="1" height="1" transform="matrix(-1 0 0 1 1 19)" fill="#0B0217"/>
<rect width="1" height="1" transform="matrix(-1 0 0 1 1 18)" fill="#0B0217"/>
<rect width="1" height="1" transform="matrix(-1 0 0 1 1 17)" fill="#0B0217"/>
<rect width="1" height="1" transform="matrix(-1 0 0 1 2 23)" fill="#0B0217"/>
<rect width="1" height="1" transform="matrix(-1 0 0 1 3 23)" fill="#0B0217"/>
<rect width="1" height="1" transform="matrix(-1 0 0 1 3 22)" fill="#0B0217"/>
<rect width="1" height="1" transform="matrix(-1 0 0 1 4 23)" fill="#0B0217"/>
<rect width="1" height="1" transform="matrix(-1 0 0 1 5 23)" fill="#0B0217"/>
<rect width="1" height="1" transform="matrix(-1 0 0 1 6 23)" fill="#0B0217"/>
<rect width="1" height="1" transform="matrix(-1 0 0 1 7 23)" fill="#0B0217"/>
<rect width="1" height="1" transform="matrix(-1 0 0 1 6 20)" fill="#0B0217"/>
<rect width="1" height="1" transform="matrix(-1 0 0 1 7 19)" fill="#0B0217"/>
<rect width="1" height="1" transform="matrix(-1 0 0 1 8 22)" fill="#0B0217"/>
<rect width="1" height="1" transform="matrix(-1 0 0 1 17 13)" fill="#0B0217"/>
<rect width="1" height="1" transform="matrix(-1 0 0 1 11 19)" fill="#0B0217"/>
<rect width="1" height="1" transform="matrix(-1 0 0 1 20 10)" fill="#0B0217"/>
<rect width="1" height="1" transform="matrix(-1 0 0 1 14 16)" fill="#0B0217"/>
<rect width="1" height="1" transform="matrix(-1 0 0 1 23 7)" fill="#0B0217"/>
<rect width="1" height="1" transform="matrix(-1 0 0 1 9 21)" fill="#0B0217"/>
<rect width="1" height="1" transform="matrix(-1 0 0 1 18 12)" fill="#0B0217"/>
<rect width="1" height="1" transform="matrix(-1 0 0 1 24 5)" fill="#0B0217"/>
<rect width="1" height="1" transform="matrix(-1 0 0 1 24 4)" fill="#0B0217"/>
<rect width="1" height="1" transform="matrix(-1 0 0 1 12 18)" fill="#0B0217"/>
<rect width="1" height="1" transform="matrix(-1 0 0 1 21 9)" fill="#0B0217"/>
<rect width="1" height="1" transform="matrix(-1 0 0 1 15 15)" fill="#0B0217"/>
<rect width="1" height="1" transform="matrix(-1 0 0 1 24 6)" fill="#0B0217"/>
<rect width="1" height="1" transform="matrix(-1 0 0 1 10 20)" fill="#0B0217"/>
<rect width="1" height="1" transform="matrix(-1 0 0 1 19 11)" fill="#0B0217"/>
<rect width="1" height="1" transform="matrix(-1 0 0 1 13 17)" fill="#0B0217"/>
<rect width="1" height="1" transform="matrix(-1 0 0 1 22 8)" fill="#0B0217"/>
<rect width="1" height="1" transform="matrix(-1 0 0 1 16 14)" fill="#0B0217"/>
<rect width="1" height="1" transform="matrix(-1 0 0 1 8 18)" fill="#0B0217"/>
<rect width="1" height="1" transform="matrix(-1 0 0 1 10 16)" fill="#0B0217"/>
<rect width="1" height="1" transform="matrix(-1 0 0 1 7 21)" fill="#0B0217"/>
<rect width="1" height="1" transform="matrix(-1 0 0 1 5 19)" fill="#0B0217"/>
<rect width="1" height="1" transform="matrix(-1 0 0 1 4 18)" fill="#0B0217"/>
<rect width="1" height="1" transform="matrix(-1 0 0 1 3 17)" fill="#0B0217"/>
<rect width="1" height="1" transform="matrix(-1 0 0 1 2 16)" fill="#0B0217"/>
<rect width="1" height="1" transform="matrix(-1 0 0 1 5 13)" fill="#0B0217"/>
<rect width="1" height="1" transform="matrix(-1 0 0 1 8 10)" fill="#0B0217"/>
<rect width="1" height="1" transform="matrix(-1 0 0 1 11 7)" fill="#0B0217"/>
<rect width="1" height="1" transform="matrix(-1 0 0 1 14 4)" fill="#0B0217"/>
<rect width="1" height="1" transform="matrix(-1 0 0 1 17 1)" fill="#0B0217"/>
<rect width="1" height="1" transform="matrix(-1 0 0 1 3 15)" fill="#0B0217"/>
<rect width="1" height="1" transform="matrix(-1 0 0 1 6 12)" fill="#0B0217"/>
<rect width="1" height="1" transform="matrix(-1 0 0 1 9 9)" fill="#0B0217"/>
<rect width="1" height="1" transform="matrix(-1 0 0 1 12 6)" fill="#0B0217"/>
<rect width="1" height="1" transform="matrix(-1 0 0 1 15 3)" fill="#0B0217"/>
<rect width="1" height="1" transform="matrix(-1 0 0 1 18 0)" fill="#0B0217"/>
<rect width="1" height="1" transform="matrix(-1 0 0 1 4 14)" fill="#0B0217"/>
<rect width="1" height="1" transform="matrix(-1 0 0 1 7 11)" fill="#0B0217"/>
<rect width="1" height="1" transform="matrix(-1 0 0 1 10 8)" fill="#0B0217"/>
<rect width="1" height="1" transform="matrix(-1 0 0 1 7 15)" fill="#0B0217"/>
<rect width="1" height="1" transform="matrix(-1 0 0 1 6 16)" fill="#0B0217"/>
<rect width="1" height="1" transform="matrix(-1 0 0 1 5 17)" fill="#0B0217"/>
<rect width="1" height="1" transform="matrix(-1 0 0 1 10 12)" fill="#0B0217"/>
<rect width="1" height="1" transform="matrix(-1 0 0 1 13 9)" fill="#0B0217"/>
<rect width="1" height="1" transform="matrix(-1 0 0 1 8 14)" fill="#0B0217"/>
<rect width="1" height="1" transform="matrix(-1 0 0 1 11 11)" fill="#0B0217"/>
<rect width="1" height="1" transform="matrix(-1 0 0 1 14 8)" fill="#0B0217"/>
<rect width="1" height="1" transform="matrix(-1 0 0 1 15 7)" fill="#0B0217"/>
<rect width="1" height="1" transform="matrix(-1 0 0 1 16 6)" fill="#0B0217"/>
<rect width="1" height="1" transform="matrix(-1 0 0 1 17 5)" fill="#0B0217"/>
<rect width="1" height="1" transform="matrix(-1 0 0 1 9 13)" fill="#0B0217"/>
<rect width="1" height="1" transform="matrix(-1 0 0 1 12 10)" fill="#0B0217"/>
<rect width="1" height="1" transform="matrix(-1 0 0 1 15 11)" fill="#0B0217"/>
<rect width="1" height="1" transform="matrix(-1 0 0 1 14 12)" fill="#0B0217"/>
<rect width="1" height="1" transform="matrix(-1 0 0 1 13 13)" fill="#0B0217"/>
<rect width="1" height="1" transform="matrix(-1 0 0 1 12 14)" fill="#0B0217"/>
<rect width="1" height="1" transform="matrix(-1 0 0 1 11 15)" fill="#0B0217"/>
<rect width="1" height="1" transform="matrix(-1 0 0 1 18 8)" fill="#0B0217"/>
<rect width="1" height="1" transform="matrix(-1 0 0 1 21 5)" fill="#0B0217"/>
<rect width="1" height="1" transform="matrix(-1 0 0 1 16 10)" fill="#0B0217"/>
<rect width="1" height="1" transform="matrix(-1 0 0 1 19 7)" fill="#0B0217"/>
<rect width="1" height="1" transform="matrix(-1 0 0 1 22 4)" fill="#0B0217"/>
<rect width="1" height="1" transform="matrix(-1 0 0 1 17 9)" fill="#0B0217"/>
<rect width="1" height="1" transform="matrix(-1 0 0 1 20 6)" fill="#0B0217"/>
<rect width="1" height="1" transform="matrix(-1 0 0 1 13 5)" fill="#0B0217"/>
<rect width="1" height="1" transform="matrix(-1 0 0 1 16 2)" fill="#0B0217"/>
<rect width="1" height="1" transform="matrix(-1 0 0 1 19 0)" fill="#0B0217"/>
<rect width="1" height="1" transform="matrix(-1 0 0 1 20 0)" fill="#0B0217"/>
<rect width="1" height="1" transform="matrix(-1 0 0 1 21 1)" fill="#0B0217"/>
<rect width="1" height="1" transform="matrix(-1 0 0 1 20 2)" fill="#0B0217"/>
<rect width="1" height="1" transform="matrix(-1 0 0 1 19 3)" fill="#0B0217"/>
<rect width="1" height="1" transform="matrix(-1 0 0 1 22 2)" fill="#0B0217"/>
<rect width="1" height="1" transform="matrix(-1 0 0 1 23 3)" fill="#0B0217"/>
</svg>
