<svg width="24" height="24" viewBox="0 0 24 24" fill="none" xmlns="http://www.w3.org/2000/svg">
<rect width="1" height="1" transform="matrix(1 0 0 -1 0 23)" fill="#0B0217"/>
<rect width="1" height="1" transform="matrix(1 0 0 -1 0 24)" fill="#0B0217"/>
<rect width="1" height="1" transform="matrix(1 0 0 -1 0 22)" fill="#0B0217"/>
<rect width="1" height="1" transform="matrix(1 0 0 -1 0 21)" fill="#0B0217"/>
<rect width="1" height="1" transform="matrix(1 0 0 -1 0 20)" fill="#0B0217"/>
<rect width="1" height="1" transform="matrix(1 0 0 -1 2 21)" fill="#0B0217"/>
<rect width="1" height="1" transform="matrix(1 0 0 -1 2 16)" fill="#0B0217"/>
<rect width="1" height="1" transform="matrix(1 0 0 -1 2 4)" fill="#0B0217"/>
<rect width="1" height="1" transform="matrix(1 0 0 -1 2 9)" fill="#0B0217"/>
<rect width="1" height="1" transform="matrix(1 0 0 -1 4 21)" fill="#0B0217"/>
<rect width="1" height="1" transform="matrix(1 0 0 -1 4 16)" fill="#0B0217"/>
<rect width="1" height="1" transform="matrix(1 0 0 -1 4 4)" fill="#0B0217"/>
<rect width="1" height="1" transform="matrix(1 0 0 -1 4 9)" fill="#0B0217"/>
<rect width="1" height="1" transform="matrix(1 0 0 -1 6 21)" fill="#0B0217"/>
<rect width="1" height="1" transform="matrix(1 0 0 -1 6 16)" fill="#0B0217"/>
<rect width="1" height="1" transform="matrix(1 0 0 -1 6 4)" fill="#0B0217"/>
<rect width="1" height="1" transform="matrix(1 0 0 -1 6 9)" fill="#0B0217"/>
<rect width="1" height="1" transform="matrix(1 0 0 -1 8 21)" fill="#0B0217"/>
<rect width="1" height="1" transform="matrix(1 0 0 -1 8 16)" fill="#0B0217"/>
<rect width="1" height="1" transform="matrix(1 0 0 -1 8 4)" fill="#0B0217"/>
<rect width="1" height="1" transform="matrix(1 0 0 -1 8 9)" fill="#0B0217"/>
<rect width="1" height="1" transform="matrix(1 0 0 -1 10 21)" fill="#0B0217"/>
<rect width="1" height="1" transform="matrix(1 0 0 -1 10 16)" fill="#0B0217"/>
<rect width="1" height="1" transform="matrix(1 0 0 -1 14 16)" fill="#0B0217"/>
<rect width="1" height="1" transform="matrix(1 0 0 -1 18 16)" fill="#0B0217"/>
<rect width="1" height="1" transform="matrix(1 0 0 -1 22 16)" fill="#0B0217"/>
<rect width="1" height="1" transform="matrix(1 0 0 -1 10 4)" fill="#0B0217"/>
<rect width="1" height="1" transform="matrix(1 0 0 -1 10 9)" fill="#0B0217"/>
<rect width="1" height="1" transform="matrix(1 0 0 -1 14 9)" fill="#0B0217"/>
<rect width="1" height="1" transform="matrix(1 0 0 -1 18 9)" fill="#0B0217"/>
<rect width="1" height="1" transform="matrix(1 0 0 -1 22 9)" fill="#0B0217"/>
<rect width="1" height="1" transform="matrix(1 0 0 -1 12 21)" fill="#0B0217"/>
<rect width="1" height="1" transform="matrix(1 0 0 -1 12 16)" fill="#0B0217"/>
<rect width="1" height="1" transform="matrix(1 0 0 -1 16 16)" fill="#0B0217"/>
<rect width="1" height="1" transform="matrix(1 0 0 -1 20 16)" fill="#0B0217"/>
<rect width="1" height="1" transform="matrix(1 0 0 -1 12 4)" fill="#0B0217"/>
<rect width="1" height="1" transform="matrix(1 0 0 -1 15 4)" fill="#0B0217"/>
<rect width="1" height="1" transform="matrix(1 0 0 -1 12 9)" fill="#0B0217"/>
<rect width="1" height="1" transform="matrix(1 0 0 -1 16 9)" fill="#0B0217"/>
<rect width="1" height="1" transform="matrix(1 0 0 -1 20 9)" fill="#0B0217"/>
<rect width="1" height="1" transform="matrix(1 0 0 -1 0 19)" fill="#0B0217"/>
<rect width="1" height="1" transform="matrix(1 0 0 -1 0 18)" fill="#0B0217"/>
<rect width="1" height="1" transform="matrix(1 0 0 -1 0 17)" fill="#0B0217"/>
<rect width="1" height="1" transform="matrix(1 0 0 -1 0 16)" fill="#0B0217"/>
<rect width="1" height="1" transform="matrix(1 0 0 -1 0 15)" fill="#0B0217"/>
<rect width="1" height="1" transform="matrix(1 0 0 -1 0 14)" fill="#0B0217"/>
<rect width="1" height="1" transform="matrix(1 0 0 -1 0 13)" fill="#0B0217"/>
<rect width="1" height="1" transform="matrix(1 0 0 -1 0 12)" fill="#0B0217"/>
<rect width="1" height="1" transform="matrix(1 0 0 -1 0 11)" fill="#0B0217"/>
<rect width="1" height="1" transform="matrix(1 0 0 -1 0 10)" fill="#0B0217"/>
<rect width="1" height="1" transform="matrix(1 0 0 -1 0 9)" fill="#0B0217"/>
<rect width="1" height="1" transform="matrix(1 0 0 -1 0 8)" fill="#0B0217"/>
<rect width="1" height="1" transform="matrix(1 0 0 -1 0 7)" fill="#0B0217"/>
<rect width="1" height="1" transform="matrix(1 0 0 -1 0 6)" fill="#0B0217"/>
<rect width="1" height="1" transform="matrix(1 0 0 -1 0 5)" fill="#0B0217"/>
<rect width="1" height="1" transform="matrix(1 0 0 -1 0 4)" fill="#0B0217"/>
<rect width="1" height="1" transform="matrix(1 0 0 -1 0 3)" fill="#0B0217"/>
<rect width="1" height="1" transform="matrix(1 0 0 -1 0 2)" fill="#0B0217"/>
<rect width="1" height="1" transform="matrix(1 0 0 -1 0 1)" fill="#0B0217"/>
<rect width="1" height="1" transform="matrix(1 0 0 -1 1 21)" fill="#0B0217"/>
<rect width="1" height="1" transform="matrix(1 0 0 -1 3 21)" fill="#0B0217"/>
<rect width="1" height="1" transform="matrix(1 0 0 -1 3 16)" fill="#0B0217"/>
<rect width="1" height="1" transform="matrix(1 0 0 -1 3 4)" fill="#0B0217"/>
<rect width="1" height="1" transform="matrix(1 0 0 -1 3 9)" fill="#0B0217"/>
<rect width="1" height="1" transform="matrix(1 0 0 -1 5 21)" fill="#0B0217"/>
<rect width="1" height="1" transform="matrix(1 0 0 -1 5 16)" fill="#0B0217"/>
<rect width="1" height="1" transform="matrix(1 0 0 -1 5 4)" fill="#0B0217"/>
<rect width="1" height="1" transform="matrix(1 0 0 -1 5 9)" fill="#0B0217"/>
<rect width="1" height="1" transform="matrix(1 0 0 -1 7 21)" fill="#0B0217"/>
<rect width="1" height="1" transform="matrix(1 0 0 -1 7 16)" fill="#0B0217"/>
<rect width="1" height="1" transform="matrix(1 0 0 -1 7 4)" fill="#0B0217"/>
<rect width="1" height="1" transform="matrix(1 0 0 -1 7 9)" fill="#0B0217"/>
<rect width="1" height="1" transform="matrix(1 0 0 -1 9 21)" fill="#0B0217"/>
<rect width="1" height="1" transform="matrix(1 0 0 -1 9 16)" fill="#0B0217"/>
<rect width="1" height="1" transform="matrix(1 0 0 -1 9 4)" fill="#0B0217"/>
<rect width="1" height="1" transform="matrix(1 0 0 -1 9 9)" fill="#0B0217"/>
<rect width="1" height="1" transform="matrix(1 0 0 -1 11 21)" fill="#0B0217"/>
<rect width="1" height="1" transform="matrix(1 0 0 -1 11 16)" fill="#0B0217"/>
<rect width="1" height="1" transform="matrix(1 0 0 -1 15 16)" fill="#0B0217"/>
<rect width="1" height="1" transform="matrix(1 0 0 -1 19 16)" fill="#0B0217"/>
<rect width="1" height="1" transform="matrix(1 0 0 -1 23 16)" fill="#0B0217"/>
<rect width="1" height="1" transform="matrix(1 0 0 -1 23 13)" fill="#0B0217"/>
<rect width="1" height="1" transform="matrix(1 0 0 -1 23 14)" fill="#0B0217"/>
<rect width="1" height="1" transform="matrix(1 0 0 -1 23 10)" fill="#0B0217"/>
<rect width="1" height="1" transform="matrix(1 0 0 -1 11 4)" fill="#0B0217"/>
<rect width="1" height="1" transform="matrix(1 0 0 -1 14 4)" fill="#0B0217"/>
<rect width="1" height="1" transform="matrix(1 0 0 -1 11 9)" fill="#0B0217"/>
<rect width="1" height="1" transform="matrix(1 0 0 -1 15 9)" fill="#0B0217"/>
<rect width="1" height="1" transform="matrix(1 0 0 -1 19 9)" fill="#0B0217"/>
<rect width="1" height="1" transform="matrix(1 0 0 -1 23 15)" fill="#0B0217"/>
<rect width="1" height="1" transform="matrix(1 0 0 -1 23 12)" fill="#0B0217"/>
<rect width="1" height="1" transform="matrix(1 0 0 -1 23 11)" fill="#0B0217"/>
<rect width="1" height="1" transform="matrix(1 0 0 -1 23 9)" fill="#0B0217"/>
<rect width="1" height="1" transform="matrix(1 0 0 -1 13 21)" fill="#0B0217"/>
<rect width="1" height="1" transform="matrix(1 0 0 -1 13 19)" fill="#0B0217"/>
<rect width="1" height="1" transform="matrix(1 0 0 -1 17 5)" fill="#0B0217"/>
<rect width="1" height="1" transform="matrix(1 0 0 -1 17 8)" fill="#0B0217"/>
<rect width="1" height="1" transform="matrix(1 0 0 -1 13 16)" fill="#0B0217"/>
<rect width="1" height="1" transform="matrix(1 0 0 -1 17 16)" fill="#0B0217"/>
<rect width="1" height="1" transform="matrix(1 0 0 -1 21 16)" fill="#0B0217"/>
<rect width="1" height="1" transform="matrix(1 0 0 -1 13 20)" fill="#0B0217"/>
<rect width="1" height="1" transform="matrix(1 0 0 -1 13 18)" fill="#0B0217"/>
<rect width="1" height="1" transform="matrix(1 0 0 -1 13 17)" fill="#0B0217"/>
<rect width="1" height="1" transform="matrix(1 0 0 -1 13 4)" fill="#0B0217"/>
<rect width="1" height="1" transform="matrix(1 0 0 -1 16 4)" fill="#0B0217"/>
<rect width="1" height="1" transform="matrix(1 0 0 -1 17 4)" fill="#0B0217"/>
<rect width="1" height="1" transform="matrix(1 0 0 -1 17 7)" fill="#0B0217"/>
<rect width="1" height="1" transform="matrix(1 0 0 -1 17 6)" fill="#0B0217"/>
<rect width="1" height="1" transform="matrix(1 0 0 -1 13 9)" fill="#0B0217"/>
<rect width="1" height="1" transform="matrix(1 0 0 -1 17 9)" fill="#0B0217"/>
<rect width="1" height="1" transform="matrix(1 0 0 -1 21 9)" fill="#0B0217"/>
<rect width="1" height="1" transform="matrix(1 0 0 -1 1 16)" fill="#0B0217"/>
<rect width="1" height="1" transform="matrix(1 0 0 -1 1 9)" fill="#0B0217"/>
<rect width="1" height="1" transform="matrix(1 0 0 -1 1 4)" fill="#0B0217"/>
</svg>
