<svg width="24" height="21" viewBox="0 0 24 21" fill="none" xmlns="http://www.w3.org/2000/svg">
<rect width="1.5" height="1.5" transform="matrix(-1 0 0 1 9 13.5)" fill="black"/>
<rect width="1.5" height="1.5" transform="matrix(-1 0 0 1 6 13.5)" fill="black"/>
<rect width="1.5" height="1.5" transform="matrix(-1 0 0 1 4.5 13.5)" fill="black"/>
<rect width="1.5" height="1.5" transform="matrix(-1 0 0 1 9 12)" fill="black"/>
<rect width="1.5" height="1.5" transform="matrix(-1 0 0 1 6 12)" fill="black"/>
<rect width="1.5" height="1.5" transform="matrix(-1 0 0 1 4.5 12)" fill="black"/>
<rect width="1.5" height="1.5" transform="matrix(-1 0 0 1 4.5 10.5)" fill="black"/>
<rect width="1.5" height="1.5" transform="matrix(-1 0 0 1 3 10.5)" fill="black"/>
<rect width="1.5" height="1.5" transform="matrix(-1 0 0 1 3 9)" fill="black"/>
<rect width="1.5" height="1.5" transform="matrix(-1 0 0 1 3 7.5)" fill="black"/>
<rect width="1.5" height="1.5" transform="matrix(-1 0 0 1 3 6)" fill="black"/>
<rect width="1.5" height="1.5" transform="matrix(-1 0 0 1 3 4.5)" fill="black"/>
<rect width="1.5" height="1.5" transform="matrix(-1 0 0 1 3 3)" fill="black"/>
<rect width="1.5" height="1.5" transform="matrix(-1 0 0 1 4.5 3)" fill="black"/>
<rect width="1.5" height="1.5" transform="matrix(-1 0 0 1 4.5 1.5)" fill="black"/>
<rect width="1.5" height="1.5" transform="matrix(-1 0 0 1 6 1.5)" fill="black"/>
<rect width="1.5" height="1.5" transform="matrix(-1 0 0 1 7.5 1.5)" fill="black"/>
<rect width="1.5" height="1.5" transform="matrix(-1 0 0 1 9 1.5)" fill="black"/>
<rect width="1.5" height="1.5" transform="matrix(-1 0 0 1 10.5 1.5)" fill="black"/>
<rect width="1.5" height="1.5" transform="matrix(-1 0 0 1 12 13.5)" fill="black"/>
<rect width="1.5" height="1.5" transform="matrix(-1 0 0 1 13.5 13.5)" fill="black"/>
<rect width="1.5" height="1.5" transform="matrix(-1 0 0 1 15 13.5)" fill="black"/>
<rect width="1.5" height="1.5" transform="matrix(-1 0 0 1 16.5 13.5)" fill="black"/>
<rect width="1.5" height="1.5" transform="matrix(-1 0 0 1 18 13.5)" fill="black"/>
<rect width="1.5" height="1.5" transform="matrix(-1 0 0 1 19.5 13.5)" fill="black"/>
<rect width="1.5" height="1.5" transform="matrix(-1 0 0 1 21 13.5)" fill="black"/>
<rect width="1.5" height="1.5" transform="matrix(-1 0 0 1 22.5 13.5)" fill="black"/>
<rect width="1.5" height="1.5" transform="matrix(-1 0 0 1 24 13.5)" fill="black"/>
<rect width="1.5" height="1.5" transform="matrix(-1 0 0 1 6 0)" fill="black"/>
<rect width="1.5" height="1.5" transform="matrix(-1 0 0 1 4.5 0)" fill="black"/>
<rect width="1.5" height="1.5" transform="matrix(-1 0 0 1 7.5 0)" fill="black"/>
<rect width="1.5" height="1.5" transform="matrix(-1 0 0 1 9 0)" fill="black"/>
<rect width="1.5" height="1.5" transform="matrix(-1 0 0 1 10.5 0)" fill="black"/>
<rect width="1.5" height="1.5" transform="matrix(-1 0 0 1 12 12)" fill="black"/>
<rect width="1.5" height="1.5" transform="matrix(-1 0 0 1 13.5 12)" fill="black"/>
<rect width="1.5" height="1.5" transform="matrix(-1 0 0 1 15 12)" fill="black"/>
<rect width="1.5" height="1.5" transform="matrix(-1 0 0 1 16.5 12)" fill="black"/>
<rect width="1.5" height="1.5" transform="matrix(-1 0 0 1 18 12)" fill="black"/>
<rect width="1.5" height="1.5" transform="matrix(-1 0 0 1 18 9)" fill="black"/>
<rect width="1.5" height="1.5" transform="matrix(-1 0 0 1 18 7.5)" fill="black"/>
<rect width="1.5" height="1.5" transform="matrix(-1 0 0 1 18 6)" fill="black"/>
<rect width="1.5" height="1.5" transform="matrix(-1 0 0 1 16.5 7.5)" fill="black"/>
<rect width="1.5" height="1.5" transform="matrix(-1 0 0 1 16.5 6)" fill="black"/>
<rect width="1.5" height="1.5" transform="matrix(-1 0 0 1 19.5 12)" fill="black"/>
<rect width="1.5" height="1.5" transform="matrix(-1 0 0 1 19.5 10.5)" fill="black"/>
<rect width="1.5" height="1.5" transform="matrix(-1 0 0 1 19.5 9)" fill="black"/>
<rect width="1.5" height="1.5" transform="matrix(-1 0 0 1 19.5 7.5)" fill="black"/>
<rect width="1.5" height="1.5" transform="matrix(-1 0 0 1 19.5 15)" fill="black"/>
<rect width="1.5" height="1.5" transform="matrix(-1 0 0 1 19.5 16.5)" fill="black"/>
<rect width="1.5" height="1.5" transform="matrix(-1 0 0 1 18 18)" fill="black"/>
<rect width="1.5" height="1.5" transform="matrix(-1 0 0 1 18 16.5)" fill="black"/>
<rect width="1.5" height="1.5" transform="matrix(-1 0 0 1 16.5 19.5)" fill="black"/>
<rect width="1.5" height="1.5" transform="matrix(-1 0 0 1 16.5 18)" fill="black"/>
<rect width="1.5" height="1.5" transform="matrix(-1 0 0 1 21 12)" fill="black"/>
<rect width="1.5" height="1.5" transform="matrix(-1 0 0 1 21 10.5)" fill="black"/>
<rect width="1.5" height="1.5" transform="matrix(-1 0 0 1 21 9)" fill="black"/>
<rect width="1.5" height="1.5" transform="matrix(-1 0 0 1 21 15)" fill="black"/>
<rect width="1.5" height="1.5" transform="matrix(-1 0 0 1 21 16.5)" fill="black"/>
<rect width="1.5" height="1.5" transform="matrix(-1 0 0 1 19.5 18)" fill="black"/>
<rect width="1.5" height="1.5" transform="matrix(-1 0 0 1 18 19.5)" fill="black"/>
<rect width="1.5" height="1.5" transform="matrix(-1 0 0 1 22.5 12)" fill="black"/>
<rect width="1.5" height="1.5" transform="matrix(-1 0 0 1 22.5 10.5)" fill="black"/>
<rect width="1.5" height="1.5" transform="matrix(-1 0 0 1 22.5 15)" fill="black"/>
<rect width="1.5" height="1.5" transform="matrix(-1 0 0 1 24 12)" fill="black"/>
<rect width="1.5" height="1.5" transform="matrix(-1 0 0 1 3 1.5)" fill="black"/>
<rect width="1.5" height="1.5" transform="matrix(-1 0 0 1 1.5 10.5)" fill="black"/>
<rect width="1.5" height="1.5" transform="matrix(-1 0 0 1 1.5 9)" fill="black"/>
<rect width="1.5" height="1.5" transform="matrix(-1 0 0 1 1.5 7.5)" fill="black"/>
<rect width="1.5" height="1.5" transform="matrix(-1 0 0 1 1.5 6)" fill="black"/>
<rect width="1.5" height="1.5" transform="matrix(-1 0 0 1 1.5 4.5)" fill="black"/>
<rect width="1.5" height="1.5" transform="matrix(-1 0 0 1 1.5 3)" fill="black"/>
<rect width="1.5" height="1.5" transform="matrix(-1 0 0 1 3 12)" fill="black"/>
<rect width="1.5" height="1.5" transform="matrix(-1 0 0 1 10.5 12)" fill="black"/>
<rect width="1.5" height="1.5" transform="matrix(-1 0 0 1 7.5 12)" fill="black"/>
<rect width="1.5" height="1.5" transform="matrix(-1 0 0 1 10.5 13.5)" fill="black"/>
<rect width="1.5" height="1.5" transform="matrix(-1 0 0 1 7.5 13.5)" fill="black"/>
</svg>
