<svg width="24" height="21" viewBox="0 0 24 21" fill="none" xmlns="http://www.w3.org/2000/svg">
<rect x="15" y="19.5" width="1.5" height="1.5" fill="black"/>
<rect x="18" y="19.5" width="1.5" height="1.5" fill="black"/>
<rect x="19.5" y="19.5" width="1.5" height="1.5" fill="black"/>
<rect x="15" y="18" width="1.5" height="1.5" fill="black"/>
<rect x="18" y="18" width="1.5" height="1.5" fill="black"/>
<rect x="19.5" y="18" width="1.5" height="1.5" fill="black"/>
<rect x="19.5" y="16.5" width="1.5" height="1.5" fill="black"/>
<rect x="21" y="16.5" width="1.5" height="1.5" fill="black"/>
<rect x="21" y="15" width="1.5" height="1.5" fill="black"/>
<rect x="21" y="13.5" width="1.5" height="1.5" fill="black"/>
<rect x="21" y="12" width="1.5" height="1.5" fill="black"/>
<rect x="21" y="10.5" width="1.5" height="1.5" fill="black"/>
<rect x="21" y="9" width="1.5" height="1.5" fill="black"/>
<rect x="19.5" y="9" width="1.5" height="1.5" fill="black"/>
<rect x="19.5" y="7.5" width="1.5" height="1.5" fill="black"/>
<rect x="18" y="7.5" width="1.5" height="1.5" fill="black"/>
<rect x="16.5" y="7.5" width="1.5" height="1.5" fill="black"/>
<rect x="15" y="7.5" width="1.5" height="1.5" fill="black"/>
<rect x="13.5" y="7.5" width="1.5" height="1.5" fill="black"/>
<rect x="12" y="7.5" width="1.5" height="1.5" fill="black"/>
<rect x="10.5" y="7.5" width="1.5" height="1.5" fill="black"/>
<rect x="9" y="7.5" width="1.5" height="1.5" fill="black"/>
<rect x="7.5" y="7.5" width="1.5" height="1.5" fill="black"/>
<rect x="6" y="7.5" width="1.5" height="1.5" fill="black"/>
<rect x="4.5" y="7.5" width="1.5" height="1.5" fill="black"/>
<rect x="3" y="7.5" width="1.5" height="1.5" fill="black"/>
<rect x="1.5" y="7.5" width="1.5" height="1.5" fill="black"/>
<rect y="7.5" width="1.5" height="1.5" fill="black"/>
<rect x="18" y="6" width="1.5" height="1.5" fill="black"/>
<rect x="19.5" y="6" width="1.5" height="1.5" fill="black"/>
<rect x="16.5" y="6" width="1.5" height="1.5" fill="black"/>
<rect x="15" y="6" width="1.5" height="1.5" fill="black"/>
<rect x="13.5" y="6" width="1.5" height="1.5" fill="black"/>
<rect x="12" y="6" width="1.5" height="1.5" fill="black"/>
<rect x="10.5" y="6" width="1.5" height="1.5" fill="black"/>
<rect x="9" y="6" width="1.5" height="1.5" fill="black"/>
<rect x="7.5" y="6" width="1.5" height="1.5" fill="black"/>
<rect x="6" y="6" width="1.5" height="1.5" fill="black"/>
<rect x="6" y="3" width="1.5" height="1.5" fill="black"/>
<rect x="6" y="1.5" width="1.5" height="1.5" fill="black"/>
<rect x="6" width="1.5" height="1.5" fill="black"/>
<rect x="7.5" y="1.5" width="1.5" height="1.5" fill="black"/>
<rect x="7.5" width="1.5" height="1.5" fill="black"/>
<rect x="4.5" y="6" width="1.5" height="1.5" fill="black"/>
<rect x="4.5" y="4.5" width="1.5" height="1.5" fill="black"/>
<rect x="4.5" y="3" width="1.5" height="1.5" fill="black"/>
<rect x="4.5" y="1.5" width="1.5" height="1.5" fill="black"/>
<rect x="4.5" y="9" width="1.5" height="1.5" fill="black"/>
<rect x="4.5" y="10.5" width="1.5" height="1.5" fill="black"/>
<rect x="6" y="12" width="1.5" height="1.5" fill="black"/>
<rect x="6" y="10.5" width="1.5" height="1.5" fill="black"/>
<rect x="7.5" y="13.5" width="1.5" height="1.5" fill="black"/>
<rect x="7.5" y="12" width="1.5" height="1.5" fill="black"/>
<rect x="3" y="6" width="1.5" height="1.5" fill="black"/>
<rect x="3" y="4.5" width="1.5" height="1.5" fill="black"/>
<rect x="3" y="3" width="1.5" height="1.5" fill="black"/>
<rect x="3" y="9" width="1.5" height="1.5" fill="black"/>
<rect x="3" y="10.5" width="1.5" height="1.5" fill="black"/>
<rect x="4.5" y="12" width="1.5" height="1.5" fill="black"/>
<rect x="6" y="13.5" width="1.5" height="1.5" fill="black"/>
<rect x="1.5" y="6" width="1.5" height="1.5" fill="black"/>
<rect x="1.5" y="4.5" width="1.5" height="1.5" fill="black"/>
<rect x="1.5" y="9" width="1.5" height="1.5" fill="black"/>
<rect y="6" width="1.5" height="1.5" fill="black"/>
<rect x="21" y="7.5" width="1.5" height="1.5" fill="black"/>
<rect x="22.5" y="16.5" width="1.5" height="1.5" fill="black"/>
<rect x="22.5" y="15" width="1.5" height="1.5" fill="black"/>
<rect x="22.5" y="13.5" width="1.5" height="1.5" fill="black"/>
<rect x="22.5" y="12" width="1.5" height="1.5" fill="black"/>
<rect x="22.5" y="10.5" width="1.5" height="1.5" fill="black"/>
<rect x="22.5" y="9" width="1.5" height="1.5" fill="black"/>
<rect x="21" y="18" width="1.5" height="1.5" fill="black"/>
<rect x="13.5" y="18" width="1.5" height="1.5" fill="black"/>
<rect x="16.5" y="18" width="1.5" height="1.5" fill="black"/>
<rect x="13.5" y="19.5" width="1.5" height="1.5" fill="black"/>
<rect x="16.5" y="19.5" width="1.5" height="1.5" fill="black"/>
</svg>
