<svg width="24" height="24" viewBox="0 0 24 24" fill="none" xmlns="http://www.w3.org/2000/svg">
<rect x="7" y="22" width="1" height="1" fill="#0B0217"/>
<rect x="7" y="20" width="1" height="1" fill="#0B0217"/>
<rect x="3" y="16" width="1" height="1" fill="#0B0217"/>
<rect x="2" y="16" width="1" height="1" fill="#0B0217"/>
<rect x="1" y="16" width="1" height="1" fill="#0B0217"/>
<rect y="16" width="1" height="1" fill="#0B0217"/>
<rect x="4" y="16" width="1" height="1" fill="#0B0217"/>
<rect x="7" y="23" width="1" height="1" fill="#0B0217"/>
<rect x="7" y="21" width="1" height="1" fill="#0B0217"/>
<rect x="7" y="19" width="1" height="1" fill="#0B0217"/>
<rect x="7" y="17" width="1" height="1" fill="#0B0217"/>
<rect x="7" y="18" width="1" height="1" fill="#0B0217"/>
<rect x="5" y="16" width="1" height="1" fill="#0B0217"/>
<rect x="6" y="16" width="1" height="1" fill="#0B0217"/>
<rect x="7" y="16" width="1" height="1" fill="#0B0217"/>
<rect x="16" y="23" width="1" height="1" fill="#0B0217"/>
<rect x="16" y="21" width="1" height="1" fill="#0B0217"/>
<rect x="16" y="22" width="1" height="1" fill="#0B0217"/>
<rect x="16" y="20" width="1" height="1" fill="#0B0217"/>
<rect x="16" y="19" width="1" height="1" fill="#0B0217"/>
<rect x="16" y="18" width="1" height="1" fill="#0B0217"/>
<rect x="16" y="17" width="1" height="1" fill="#0B0217"/>
<rect x="18" y="16" width="1" height="1" fill="#0B0217"/>
<rect x="17" y="16" width="1" height="1" fill="#0B0217"/>
<rect x="16" y="16" width="1" height="1" fill="#0B0217"/>
<rect x="19" y="16" width="1" height="1" fill="#0B0217"/>
<rect x="20" y="16" width="1" height="1" fill="#0B0217"/>
<rect x="21" y="16" width="1" height="1" fill="#0B0217"/>
<rect x="22" y="16" width="1" height="1" fill="#0B0217"/>
<rect x="23" y="16" width="1" height="1" fill="#0B0217"/>
<rect x="7" y="3" width="1" height="1" fill="#0B0217"/>
<rect x="7" y="1" width="1" height="1" fill="#0B0217"/>
<rect x="3" y="7" width="1" height="1" fill="#0B0217"/>
<rect x="2" y="7" width="1" height="1" fill="#0B0217"/>
<rect x="1" y="7" width="1" height="1" fill="#0B0217"/>
<rect y="7" width="1" height="1" fill="#0B0217"/>
<rect y="7" width="1" height="1" fill="#0B0217"/>
<rect x="4" y="7" width="1" height="1" fill="#0B0217"/>
<rect x="7" y="4" width="1" height="1" fill="#0B0217"/>
<rect x="5" y="7" width="1" height="1" fill="#0B0217"/>
<rect x="6" y="7" width="1" height="1" fill="#0B0217"/>
<rect x="7" y="7" width="1" height="1" fill="#0B0217"/>
<rect x="7" y="6" width="1" height="1" fill="#0B0217"/>
<rect x="7" y="5" width="1" height="1" fill="#0B0217"/>
<rect x="7" y="2" width="1" height="1" fill="#0B0217"/>
<rect x="7" width="1" height="1" fill="#0B0217"/>
<rect x="16" y="4" width="1" height="1" fill="#0B0217"/>
<rect x="16" y="5" width="1" height="1" fill="#0B0217"/>
<rect x="16" y="6" width="1" height="1" fill="#0B0217"/>
<rect x="16" y="7" width="1" height="1" fill="#0B0217"/>
<rect x="18" y="7" width="1" height="1" fill="#0B0217"/>
<rect x="17" y="7" width="1" height="1" fill="#0B0217"/>
<rect x="16" y="2" width="1" height="1" fill="#0B0217"/>
<rect x="16" y="3" width="1" height="1" fill="#0B0217"/>
<rect x="16" y="1" width="1" height="1" fill="#0B0217"/>
<rect x="16" width="1" height="1" fill="#0B0217"/>
<rect x="19" y="7" width="1" height="1" fill="#0B0217"/>
<rect x="20" y="7" width="1" height="1" fill="#0B0217"/>
<rect x="21" y="7" width="1" height="1" fill="#0B0217"/>
<rect x="22" y="7" width="1" height="1" fill="#0B0217"/>
<rect x="23" y="7" width="1" height="1" fill="#0B0217"/>
</svg>
